<mxfile host="app.diagrams.net" agent="Mozilla/5.0 (Windows NT 10.0; Win64; x64) AppleWebKit/537.36 (KHTML, like Gecko) Chrome/141.0.0.0 Safari/537.36 Edg/141.0.0.0" version="28.2.8">
  <diagram name="Page-1" id="Iqzep2Eil3ykFxYwn48A">
    <mxGraphModel dx="2266" dy="1993" grid="1" gridSize="10" guides="1" tooltips="1" connect="1" arrows="1" fold="1" page="1" pageScale="1" pageWidth="850" pageHeight="1100" math="0" shadow="0">
      <root>
        <mxCell id="0" />
        <mxCell id="1" parent="0" />
        <mxCell id="mzS4798Yjswd0JI5HEyz-2" value="cva_config" style="swimlane;fontStyle=1;align=center;verticalAlign=top;childLayout=stackLayout;horizontal=1;startSize=26;horizontalStack=0;resizeParent=1;resizeParentMax=0;resizeLast=0;collapsible=1;marginBottom=0;whiteSpace=wrap;html=1;" parent="1" vertex="1">
          <mxGeometry x="-670" y="-690" width="485" height="86" as="geometry" />
        </mxCell>
        <mxCell id="mzS4798Yjswd0JI5HEyz-3" value="cva6_config_pkg::cva6_cfg" style="text;strokeColor=none;fillColor=none;align=left;verticalAlign=top;spacingLeft=4;spacingRight=4;overflow=hidden;rotatable=0;points=[[0,0.5],[1,0.5]];portConstraint=eastwest;whiteSpace=wrap;html=1;" parent="mzS4798Yjswd0JI5HEyz-2" vertex="1">
          <mxGeometry y="26" width="485" height="26" as="geometry" />
        </mxCell>
        <mxCell id="mzS4798Yjswd0JI5HEyz-4" value="" style="line;strokeWidth=1;fillColor=none;align=left;verticalAlign=middle;spacingTop=-1;spacingLeft=3;spacingRight=3;rotatable=0;labelPosition=right;points=[];portConstraint=eastwest;strokeColor=inherit;" parent="mzS4798Yjswd0JI5HEyz-2" vertex="1">
          <mxGeometry y="52" width="485" height="8" as="geometry" />
        </mxCell>
        <mxCell id="mzS4798Yjswd0JI5HEyz-5" value="/home/ICer/proj/cva6/core/include/cv64a6_imafdc_sv39_config_pkg.sv" style="text;strokeColor=none;fillColor=none;align=left;verticalAlign=top;spacingLeft=4;spacingRight=4;overflow=hidden;rotatable=0;points=[[0,0.5],[1,0.5]];portConstraint=eastwest;whiteSpace=wrap;html=1;" parent="mzS4798Yjswd0JI5HEyz-2" vertex="1">
          <mxGeometry y="60" width="485" height="26" as="geometry" />
        </mxCell>
        <mxCell id="mzS4798Yjswd0JI5HEyz-6" value="filelist" style="swimlane;fontStyle=1;align=center;verticalAlign=top;childLayout=stackLayout;horizontal=1;startSize=26;horizontalStack=0;resizeParent=1;resizeParentMax=0;resizeLast=0;collapsible=1;marginBottom=0;whiteSpace=wrap;html=1;" parent="1" vertex="1">
          <mxGeometry x="-140" y="-930" width="485" height="112" as="geometry" />
        </mxCell>
        <mxCell id="mzS4798Yjswd0JI5HEyz-8" value="" style="line;strokeWidth=1;fillColor=none;align=left;verticalAlign=middle;spacingTop=-1;spacingLeft=3;spacingRight=3;rotatable=0;labelPosition=right;points=[];portConstraint=eastwest;strokeColor=inherit;" parent="mzS4798Yjswd0JI5HEyz-6" vertex="1">
          <mxGeometry y="26" width="485" height="8" as="geometry" />
        </mxCell>
        <mxCell id="mzS4798Yjswd0JI5HEyz-10" value="/home/ICer/proj/cva6/verif/sim//../tb/core/Flist.cva6_tb" style="text;strokeColor=default;fillColor=default;align=left;verticalAlign=top;spacingLeft=4;spacingRight=4;overflow=hidden;rotatable=0;points=[[0,0.5],[1,0.5]];portConstraint=eastwest;whiteSpace=wrap;html=1;" parent="mzS4798Yjswd0JI5HEyz-6" vertex="1">
          <mxGeometry y="34" width="485" height="26" as="geometry" />
        </mxCell>
        <mxCell id="mzS4798Yjswd0JI5HEyz-7" value="/home/ICer/proj/cva6/core/Flist.cva6" style="text;strokeColor=default;fillColor=default;align=left;verticalAlign=top;spacingLeft=4;spacingRight=4;overflow=hidden;rotatable=0;points=[[0,0.5],[1,0.5]];portConstraint=eastwest;whiteSpace=wrap;html=1;" parent="mzS4798Yjswd0JI5HEyz-6" vertex="1">
          <mxGeometry y="60" width="485" height="26" as="geometry" />
        </mxCell>
        <mxCell id="mzS4798Yjswd0JI5HEyz-11" value="/home/ICer/proj/cva6/verif/tb/uvmt/uvmt_cva6.flist" style="text;strokeColor=default;fillColor=default;align=left;verticalAlign=top;spacingLeft=4;spacingRight=4;overflow=hidden;rotatable=0;points=[[0,0.5],[1,0.5]];portConstraint=eastwest;whiteSpace=wrap;html=1;" parent="mzS4798Yjswd0JI5HEyz-6" vertex="1">
          <mxGeometry y="86" width="485" height="26" as="geometry" />
        </mxCell>
        <mxCell id="AIi3PwNUS5Vkqz0hZRpa-1" value="MAKE &amp;amp; RUN" style="swimlane;fontStyle=1;align=center;verticalAlign=top;childLayout=stackLayout;horizontal=1;startSize=26;horizontalStack=0;resizeParent=1;resizeParentMax=0;resizeLast=0;collapsible=1;marginBottom=0;whiteSpace=wrap;html=1;" vertex="1" parent="1">
          <mxGeometry x="-690" y="-500" width="1160" height="1022" as="geometry" />
        </mxCell>
        <mxCell id="AIi3PwNUS5Vkqz0hZRpa-2" value="&lt;div&gt;&lt;span style=&quot;font-size: 12px;&quot;&gt;&lt;b&gt;make&amp;nbsp;&lt;/b&gt;&lt;/span&gt;&lt;/div&gt;&lt;div&gt;&lt;span style=&quot;font-size: 12px;&quot;&gt;vcs-uvm&amp;nbsp;&lt;/span&gt;&lt;/div&gt;&lt;div&gt;&lt;span style=&quot;font-size: 12px;&quot;&gt;target=cv64a6_imafdc_sv39&amp;nbsp;&lt;/span&gt;&lt;/div&gt;&lt;div&gt;&lt;span style=&quot;font-size: 12px;&quot;&gt;cov=${cov}&amp;nbsp;&lt;/span&gt;&lt;/div&gt;&lt;div&gt;&lt;span style=&quot;font-size: 12px;&quot;&gt;variant=rv64gc_zba_zbb_zbs_zbc_zbkb_zbkx_zkne_zknd_zknh&amp;nbsp;&lt;/span&gt;&lt;/div&gt;&lt;div&gt;&lt;span style=&quot;font-size: 12px;&quot;&gt;elf=/home/ICer/proj/cva6/verif/sim/out_2025-10-28/directed_tests/hello_world.o&amp;nbsp;&lt;/span&gt;&lt;/div&gt;&lt;div&gt;&lt;span style=&quot;font-size: 12px;&quot;&gt;tool_path=/home/ICer/proj/cva6/tools/spike/bin&amp;nbsp;&lt;/span&gt;&lt;/div&gt;&lt;div&gt;&lt;span style=&quot;font-size: 12px;&quot;&gt;isscomp_opts=&quot;&quot;&amp;nbsp;&lt;/span&gt;&lt;/div&gt;&lt;div&gt;&lt;span style=&quot;font-size: 12px;&quot;&gt;issrun_opts=&quot;&lt;/span&gt;&lt;span style=&quot;background-color: transparent; color: light-dark(rgb(0, 0, 0), rgb(255, 255, 255));&quot;&gt;+ntb_random_seed=1247870493&quot;&amp;nbsp;&lt;/span&gt;&lt;/div&gt;&lt;div&gt;&lt;span style=&quot;font-size: 12px;&quot;&gt;isspostrun_opts=&quot;0x0000000080000000&quot;&amp;nbsp;&lt;/span&gt;&lt;/div&gt;&lt;div&gt;&lt;span style=&quot;font-size: 12px;&quot;&gt;log=/home/ICer/proj/cva6/verif/sim/out_2025-10-28/vcs-uvm_sim/hello_world.cv64a6_imafdc_sv39.log &amp;amp;&amp;gt; /home/ICer/proj/cva6/verif/sim/out_2025-10-28/vcs-uvm_sim/hello_world.cv64a6_imafdc_sv39.log.iss&lt;/span&gt;&lt;/div&gt;" style="text;strokeColor=#82b366;fillColor=#d5e8d4;align=left;verticalAlign=top;spacingLeft=4;spacingRight=4;overflow=hidden;rotatable=0;points=[[0,0.5],[1,0.5]];portConstraint=eastwest;whiteSpace=wrap;html=1;" vertex="1" parent="AIi3PwNUS5Vkqz0hZRpa-1">
          <mxGeometry y="26" width="1160" height="204" as="geometry" />
        </mxCell>
        <mxCell id="AIi3PwNUS5Vkqz0hZRpa-5" value="&lt;div&gt;&lt;span style=&quot;font-size: 12px;&quot;&gt;mkdir -p /home/ICer/proj/cva6/verif/sim/vcs_results/default/vcs.d&lt;/span&gt;&lt;/div&gt;&lt;div&gt;&lt;span style=&quot;font-size: 12px;&quot;&gt;cd /home/ICer/proj/cva6/verif/sim/vcs_results/default/vcs.d &amp;amp;&amp;amp;&amp;nbsp;&lt;/span&gt;&lt;/div&gt;&lt;div&gt;&lt;span style=&quot;font-size: 12px;&quot;&gt;&lt;br&gt;&lt;/span&gt;&lt;/div&gt;&lt;div&gt;&lt;span style=&quot;font-size: 12px;&quot;&gt;&lt;b&gt;vcs&amp;nbsp;&lt;/b&gt;&lt;/span&gt;&lt;/div&gt;&lt;div&gt;&lt;span style=&quot;font-size: 12px;&quot;&gt;+incdir+/home/ICer/proj/cva6/verif/env/uvme&amp;nbsp;&lt;/span&gt;&lt;/div&gt;&lt;div&gt;&lt;span style=&quot;font-size: 12px;&quot;&gt;+incdir+/home/ICer/proj/cva6/verif/tb/uvmt&amp;nbsp;&lt;/span&gt;&lt;/div&gt;&lt;div&gt;&lt;span style=&quot;font-size: 12px;&quot;&gt;+core_name=cv64a6_imafdc_sv39&amp;nbsp;&amp;nbsp;&lt;/span&gt;&lt;/div&gt;&lt;div&gt;&lt;span style=&quot;font-size: 12px;&quot;&gt;-lca&amp;nbsp;&lt;/span&gt;&lt;/div&gt;&lt;div&gt;&lt;span style=&quot;font-size: 12px;&quot;&gt;-sverilog&amp;nbsp;&lt;/span&gt;&lt;/div&gt;&lt;div&gt;&lt;span style=&quot;font-size: 12px;&quot;&gt;+incdir+/home/synopsys/vcs-mx/O-2018.09-1/etc/uvm/src&amp;nbsp;&lt;/span&gt;&lt;/div&gt;&lt;div&gt;&lt;span style=&quot;font-size: 12px;&quot;&gt;/home/synopsys/vcs-mx/O-2018.09-1/etc/uvm/src/uvm_pkg.sv&amp;nbsp;&lt;/span&gt;&lt;/div&gt;&lt;div&gt;&lt;span style=&quot;font-size: 12px;&quot;&gt;-ntb_opts&amp;nbsp;&lt;/span&gt;&lt;/div&gt;&lt;div&gt;&lt;span style=&quot;font-size: 12px;&quot;&gt;uvm-1.2 -timescale=1ns/1ps&amp;nbsp;&lt;/span&gt;&lt;/div&gt;&lt;div&gt;&lt;span style=&quot;font-size: 12px;&quot;&gt;-assert&amp;nbsp;&lt;/span&gt;&lt;span style=&quot;background-color: transparent; color: light-dark(rgb(0, 0, 0), rgb(255, 255, 255));&quot;&gt;svaext&amp;nbsp;&lt;/span&gt;&lt;/div&gt;&lt;div&gt;&lt;span style=&quot;background-color: transparent; color: light-dark(rgb(0, 0, 0), rgb(255, 255, 255));&quot;&gt;-race=all&amp;nbsp;&lt;/span&gt;&lt;/div&gt;&lt;div&gt;&lt;span style=&quot;background-color: transparent; color: light-dark(rgb(0, 0, 0), rgb(255, 255, 255));&quot;&gt;-ignore unique_checks&amp;nbsp;&lt;/span&gt;&lt;/div&gt;&lt;div&gt;&lt;span style=&quot;background-color: transparent; color: light-dark(rgb(0, 0, 0), rgb(255, 255, 255));&quot;&gt;-full64 -q +incdir+/home/synopsys/vcs-mx/O-2018.09-1/etc/uvm/src&amp;nbsp;&amp;nbsp;&lt;/span&gt;&lt;/div&gt;&lt;div&gt;&lt;span style=&quot;background-color: transparent; color: light-dark(rgb(0, 0, 0), rgb(255, 255, 255));&quot;&gt;-debug_access+all&amp;nbsp;&amp;nbsp;&lt;/span&gt;&lt;/div&gt;&lt;div&gt;&lt;span style=&quot;background-color: transparent; color: light-dark(rgb(0, 0, 0), rgb(255, 255, 255));&quot;&gt;-kdb&amp;nbsp; &amp;nbsp;&lt;/span&gt;&lt;/div&gt;&lt;div&gt;&lt;span style=&quot;background-color: transparent; color: light-dark(rgb(0, 0, 0), rgb(255, 255, 255));&quot;&gt;-cm_seqnoconst&amp;nbsp;&lt;/span&gt;&lt;/div&gt;&lt;div&gt;&lt;span style=&quot;background-color: transparent; color: light-dark(rgb(0, 0, 0), rgb(255, 255, 255));&quot;&gt;-diag noconst&amp;nbsp;&lt;/span&gt;&lt;/div&gt;&lt;div&gt;&lt;span style=&quot;background-color: transparent; color: light-dark(rgb(0, 0, 0), rgb(255, 255, 255));&quot;&gt;-cm_cond arith&lt;/span&gt;&lt;/div&gt;&lt;div&gt;&lt;span style=&quot;font-size: 12px;&quot;&gt;-f /home/ICer/proj/cva6/core/Flist.cva6&amp;nbsp;&lt;/span&gt;&lt;/div&gt;&lt;div&gt;&lt;span style=&quot;font-size: 12px;&quot;&gt;-f /home/ICer/proj/cva6/verif/sim//../tb/core/Flist.cva6_tb&lt;/span&gt;&lt;/div&gt;&lt;div&gt;&lt;span style=&quot;font-size: 12px;&quot;&gt;-f /home/ICer/proj/cva6/verif/tb/uvmt/uvmt_cva6.flist&lt;/span&gt;&lt;/div&gt;&lt;div&gt;&lt;span style=&quot;font-size: 12px;&quot;&gt;+define+UNSUPPORTED_WITH+&lt;/span&gt;&lt;/div&gt;&lt;div&gt;&lt;span style=&quot;font-size: 12px;&quot;&gt;-LDFLAGS&amp;nbsp;&lt;/span&gt;&lt;/div&gt;&lt;div&gt;&lt;span style=&quot;font-size: 12px;&quot;&gt;-Wl,--no-as-needed&lt;/span&gt;&lt;/div&gt;&lt;div&gt;&lt;span style=&quot;font-size: 12px;&quot;&gt;-ignore initializer_driver_checks&lt;/span&gt;&lt;/div&gt;&lt;div&gt;&lt;span style=&quot;font-size: 12px;&quot;&gt;-top uvmt_cva6_tb&lt;/span&gt;&lt;/div&gt;&lt;div&gt;&lt;span style=&quot;font-size: 12px;&quot;&gt;+notimingcheck&lt;/span&gt;&lt;/div&gt;" style="text;strokeColor=#82b366;fillColor=#d5e8d4;align=left;verticalAlign=top;spacingLeft=4;spacingRight=4;overflow=hidden;rotatable=0;points=[[0,0.5],[1,0.5]];portConstraint=eastwest;whiteSpace=wrap;html=1;" vertex="1" parent="AIi3PwNUS5Vkqz0hZRpa-1">
          <mxGeometry y="230" width="1160" height="472" as="geometry" />
        </mxCell>
        <mxCell id="AIi3PwNUS5Vkqz0hZRpa-6" value="&lt;div&gt;&lt;span style=&quot;font-size: 12px;&quot;&gt;&lt;b&gt;simv&amp;nbsp;&amp;nbsp;&lt;/b&gt;&lt;/span&gt;&lt;/div&gt;&lt;div&gt;&lt;span style=&quot;font-size: 12px;&quot;&gt;-verdi&amp;nbsp;&lt;/span&gt;&lt;/div&gt;&lt;div&gt;&lt;span style=&quot;font-size: 12px;&quot;&gt;-do /home/ICer/proj/cva6//util/init_testharness.do&amp;nbsp;&lt;/span&gt;&lt;/div&gt;&lt;div&gt;&lt;span style=&quot;font-size: 12px;&quot;&gt;+permissive&lt;/span&gt;&lt;/div&gt;&lt;div&gt;&lt;span style=&quot;font-size: 12px;&quot;&gt;+permissive-off ++/home/ICer/proj/cva6/verif/sim/out_2025-10-28/directed tests/hello_world.o&amp;nbsp;&lt;/span&gt;&lt;/div&gt;&lt;div&gt;&lt;span style=&quot;background-color: transparent; color: light-dark(rgb(0, 0, 0), rgb(255, 255, 255));&quot;&gt;+elf_file=/home/ICer/proj/cva6/verif/sim/out_2025-10-28/directed tests/hello_world.o&amp;nbsp;&lt;/span&gt;&lt;/div&gt;&lt;div&gt;&lt;span style=&quot;font-size: 12px; white-space: normal;&quot;&gt;+core_name=cv64a6_imafdc_sv39&amp;nbsp;&amp;nbsp;&lt;/span&gt;&lt;/div&gt;&lt;div&gt;&lt;span style=&quot;font-size: 12px; white-space: normal;&quot;&gt;+tohost_addr=0000000080001000&amp;nbsp;&lt;/span&gt;&lt;/div&gt;&lt;div&gt;&lt;span style=&quot;font-size: 12px; white-space: normal;&quot;&gt;+signature=/home/ICer/proj/cva6/verif/sim/out_2025-10-28/directed_tests/hello_world.o.signature_output&amp;nbsp;&lt;/span&gt;&lt;/div&gt;&lt;div&gt;&lt;span style=&quot;font-size: 12px; white-space: normal;&quot;&gt;+UVM_TESTNAME=uvmt_cva6_firmware_test_c&amp;nbsp;&lt;/span&gt;&lt;/div&gt;&lt;div&gt;&lt;span style=&quot;font-size: 12px; white-space: normal;&quot;&gt;+report_file=/home/ICer/proj/cva6/verif/sim/out_2025-10-28/vcs-testharness_sim/hello_world.cv64a6_imafdc_sv39.log.yaml&amp;nbsp;&lt;/span&gt;&lt;/div&gt;&lt;div&gt;&lt;span style=&quot;font-size: 12px; white-space: normal;&quot;&gt;+core_name=cv64a6_imafdc_sv39&amp;nbsp;&lt;/span&gt;&lt;/div&gt;&lt;div&gt;&lt;span style=&quot;font-size: 12px; white-space: normal;&quot;&gt;+debug_disable=1&amp;nbsp;&lt;/span&gt;&lt;/div&gt;&lt;div&gt;&lt;span style=&quot;font-size: 12px; white-space: normal;&quot;&gt;+ntb_random_seed=294229036&amp;nbsp;&lt;/span&gt;&lt;/div&gt;&lt;div&gt;&lt;span style=&quot;font-size: 12px; white-space: normal;&quot;&gt;-sv_lib /home/ICer/proj/cva6/tools/spike/lib/libcustomext&amp;nbsp;&lt;/span&gt;&lt;/div&gt;&lt;div&gt;&lt;span style=&quot;font-size: 12px; white-space: normal;&quot;&gt;-sv_lib /home/ICer/proj/cva6/tools/spike/lib/libyaml-cpp&amp;nbsp;&lt;/span&gt;&lt;/div&gt;&lt;div&gt;&lt;span style=&quot;font-size: 12px; white-space: normal;&quot;&gt;-sv_lib /home/ICer/proj/cva6/tools/spike/lib/libriscv&amp;nbsp;&lt;/span&gt;&lt;/div&gt;&lt;div&gt;&lt;span style=&quot;font-size: 12px; white-space: normal;&quot;&gt;-sv_lib /home/ICer/proj/cva6/tools/spike/lib/libfesvr&amp;nbsp;&lt;/span&gt;&lt;/div&gt;&lt;div&gt;&lt;span style=&quot;font-size: 12px; white-space: normal;&quot;&gt;-sv_lib /home/ICer/proj/cva6/tools/spike/lib/libdisasm&lt;/span&gt;&lt;/div&gt;&lt;div&gt;&lt;span style=&quot;font-size: 12px;&quot;&gt;logDir = /home/ICer/proj/cva6/verif/sim/verdiLog&lt;/span&gt;&lt;/div&gt;&lt;div&gt;&lt;br&gt;&lt;/div&gt;" style="text;strokeColor=#6c8ebf;fillColor=#dae8fc;align=left;verticalAlign=top;spacingLeft=4;spacingRight=4;overflow=hidden;rotatable=0;points=[[0,0.5],[1,0.5]];portConstraint=eastwest;whiteSpace=wrap;html=1;" vertex="1" parent="AIi3PwNUS5Vkqz0hZRpa-1">
          <mxGeometry y="702" width="1160" height="320" as="geometry" />
        </mxCell>
        <mxCell id="AIi3PwNUS5Vkqz0hZRpa-7" value="include" style="html=1;verticalAlign=bottom;endArrow=block;curved=0;rounded=0;exitX=0.5;exitY=0;exitDx=0;exitDy=0;entryX=0;entryY=0.5;entryDx=0;entryDy=0;" edge="1" parent="1" source="mzS4798Yjswd0JI5HEyz-2" target="mzS4798Yjswd0JI5HEyz-7">
          <mxGeometry x="0.0039" width="80" relative="1" as="geometry">
            <mxPoint x="20" y="-530" as="sourcePoint" />
            <mxPoint x="-40" y="-710" as="targetPoint" />
            <mxPoint as="offset" />
          </mxGeometry>
        </mxCell>
        <mxCell id="AIi3PwNUS5Vkqz0hZRpa-8" value="tandem" style="swimlane;fontStyle=1;align=center;verticalAlign=top;childLayout=stackLayout;horizontal=1;startSize=26;horizontalStack=0;resizeParent=1;resizeParentMax=0;resizeLast=0;collapsible=1;marginBottom=0;whiteSpace=wrap;html=1;" vertex="1" parent="1">
          <mxGeometry x="800" y="-1068" width="640" height="568" as="geometry" />
        </mxCell>
        <mxCell id="AIi3PwNUS5Vkqz0hZRpa-12" value="&lt;b&gt;/home/ICer/proj/cva6/verif/sim/Makefile&lt;/b&gt;&lt;div&gt;&lt;br&gt;&lt;/div&gt;&lt;div&gt;&lt;div&gt;&lt;span style=&quot;font-size: 12px;&quot;&gt;&lt;font style=&quot;color: rgb(51, 51, 255);&quot;&gt;ifneq ($(&lt;b&gt;SPIKE_TANDEM&lt;/b&gt;),)&lt;/font&gt;&lt;/span&gt;&lt;/div&gt;&lt;div&gt;&lt;span style=&quot;font-size: 12px;&quot;&gt;&lt;font style=&quot;color: rgb(51, 51, 255);&quot;&gt;ALL_SIMV_UVM_FLAGS += +tandem_enabled=1&lt;/font&gt;&lt;/span&gt;&lt;/div&gt;&lt;div&gt;&lt;span style=&quot;font-size: 12px;&quot;&gt;&lt;font style=&quot;color: rgb(51, 51, 255);&quot;&gt;ALL_XRUN_SIMV_UVM_FLAGS += +tandem_enabled=1&lt;/font&gt;&lt;/span&gt;&lt;/div&gt;&lt;div&gt;&lt;span style=&quot;font-size: 12px;&quot;&gt;&lt;font style=&quot;color: rgb(51, 51, 255);&quot;&gt;else&lt;/font&gt;&lt;/span&gt;&lt;/div&gt;&lt;div&gt;&lt;span style=&quot;font-size: 12px;&quot;&gt;&lt;font style=&quot;color: rgb(51, 51, 255);&quot;&gt;ALL_SIMV_UVM_FLAGS += +tandem_enabled=0&lt;/font&gt;&lt;/span&gt;&lt;/div&gt;&lt;div&gt;&lt;span style=&quot;font-size: 12px;&quot;&gt;&lt;font style=&quot;color: rgb(51, 51, 255);&quot;&gt;ALL_XRUN_SIMV_UVM_FLAGS += +tandem_enabled=0&lt;/font&gt;&lt;/span&gt;&lt;/div&gt;&lt;div&gt;&lt;span style=&quot;font-size: 12px;&quot;&gt;&lt;font style=&quot;color: rgb(51, 51, 255);&quot;&gt;endif&lt;/font&gt;&lt;/span&gt;&lt;/div&gt;&lt;/div&gt;" style="text;strokeColor=default;fillColor=default;align=left;verticalAlign=top;spacingLeft=4;spacingRight=4;overflow=hidden;rotatable=0;points=[[0,0.5],[1,0.5]];portConstraint=eastwest;whiteSpace=wrap;html=1;" vertex="1" parent="AIi3PwNUS5Vkqz0hZRpa-8">
          <mxGeometry y="26" width="640" height="154" as="geometry" />
        </mxCell>
        <mxCell id="AIi3PwNUS5Vkqz0hZRpa-11" value="&lt;b&gt;/home/ICer/proj/cva6/verif/env/uvme/uvme_cva6_env.sv&lt;br&gt;&lt;/b&gt;&lt;div&gt;&lt;span style=&quot;background-color: transparent; color: light-dark(rgb(0, 0, 0), rgb(255, 255, 255));&quot;&gt;&lt;br&gt;&lt;/span&gt;&lt;/div&gt;&lt;div&gt;&lt;span style=&quot;background-color: transparent; font-size: 12px;&quot;&gt;&lt;b&gt;&lt;div style=&quot;&quot;&gt;if ($test$plusargs(&quot;tandem enabled&quot;))&lt;/div&gt;&lt;div style=&quot;&quot;&gt;&amp;nbsp; &amp;nbsp; $value$plusargs(&quot;tandem enabled=%b&quot;,cfg.tandem_enabled);&lt;/div&gt;&lt;/b&gt;&lt;/span&gt;&lt;/div&gt;&lt;div&gt;&lt;span style=&quot;background-color: transparent; color: light-dark(rgb(0, 0, 0), rgb(255, 255, 255));&quot;&gt;&lt;br&gt;&lt;/span&gt;&lt;/div&gt;&lt;div&gt;&lt;span style=&quot;background-color: transparent; color: light-dark(rgb(0, 0, 0), rgb(255, 255, 255));&quot;&gt;if (cfg.tandem_enabled) begin&lt;/span&gt;&lt;/div&gt;&lt;div&gt;&lt;div&gt;&lt;span style=&quot;font-size: 12px;&quot;&gt;&amp;nbsp; &amp;nbsp; reference_model = uvmc_rvfi_reference_model#(ILEN,XLEN)::type_id::create(&quot;reference_model&quot;, this);&lt;/span&gt;&lt;/div&gt;&lt;div&gt;&lt;span style=&quot;font-size: 12px;&quot;&gt;end&lt;/span&gt;&lt;br&gt;&lt;br&gt;&lt;div style=&quot;&quot;&gt;&lt;span style=&quot;font-size: 12px;&quot;&gt;if (cfg.scoreboard_enabled || cfg.tandem_enabled) begin&lt;/span&gt;&lt;/div&gt;&lt;div style=&quot;&quot;&gt;&lt;span style=&quot;font-size: 12px;&quot;&gt;&amp;nbsp; &amp;nbsp; sb&amp;nbsp; &amp;nbsp; &amp;nbsp; &amp;nbsp; = uvme_cva6_sb_c ::type_id::create(&quot;sb&quot;&amp;nbsp; &amp;nbsp; &amp;nbsp; &amp;nbsp;, this);&lt;/span&gt;&lt;/div&gt;&lt;div style=&quot;&quot;&gt;&lt;span style=&quot;font-size: 12px;&quot;&gt;end&lt;br&gt;&lt;br&gt;&lt;div&gt;if (cfg.tandem_enabled) begin&lt;/div&gt;&lt;div&gt;&amp;nbsp; &amp;nbsp; rvfi_agent.rvfi_core_ap.connect(sb.m_rvfi_scoreboard.m_imp_core);&lt;/div&gt;&lt;div&gt;&amp;nbsp; &amp;nbsp; rvfi_agent.rvfi_core_ap.connect(reference_model.m_analysis_imp);&lt;/div&gt;&lt;div&gt;&amp;nbsp; &amp;nbsp; reference_model.m_analysis_port.connect(sb.m_rvfi_scoreboard.m_imp_reference_model);&lt;/div&gt;&lt;div&gt;end&lt;/div&gt;&lt;/span&gt;&lt;/div&gt;&lt;/div&gt;&lt;/div&gt;" style="text;strokeColor=default;fillColor=default;align=left;verticalAlign=top;spacingLeft=4;spacingRight=4;overflow=hidden;rotatable=0;points=[[0,0.5],[1,0.5]];portConstraint=eastwest;whiteSpace=wrap;html=1;" vertex="1" parent="AIi3PwNUS5Vkqz0hZRpa-8">
          <mxGeometry y="180" width="640" height="284" as="geometry" />
        </mxCell>
        <mxCell id="AIi3PwNUS5Vkqz0hZRpa-9" value="&lt;b&gt;/home/ICer/proj/cva6/verif/env/uvme/uvme_cva6_sb.sv&lt;br&gt;&lt;/b&gt;&lt;br&gt;&lt;div&gt;&lt;span style=&quot;font-size: 12px;&quot;&gt;if (cfg.tandem_enabled)&lt;/span&gt;&lt;/div&gt;&lt;div&gt;&lt;span style=&quot;font-size: 12px;&quot;&gt;&amp;nbsp; &amp;nbsp; &amp;nbsp; &amp;nbsp; m_rvfi_scoreboard = uvmc_rvfi_scoreboard_c#(ILEN,XLEN)::type_id::create(&quot;m_rvfi_scoreboard&quot;, this);&lt;/span&gt;&lt;/div&gt;" style="text;strokeColor=default;fillColor=default;align=left;verticalAlign=top;spacingLeft=4;spacingRight=4;overflow=hidden;rotatable=0;points=[[0,0.5],[1,0.5]];portConstraint=eastwest;whiteSpace=wrap;html=1;" vertex="1" parent="AIi3PwNUS5Vkqz0hZRpa-8">
          <mxGeometry y="464" width="640" height="96" as="geometry" />
        </mxCell>
        <mxCell id="AIi3PwNUS5Vkqz0hZRpa-10" value="" style="line;strokeWidth=1;fillColor=none;align=left;verticalAlign=middle;spacingTop=-1;spacingLeft=3;spacingRight=3;rotatable=0;labelPosition=right;points=[];portConstraint=eastwest;strokeColor=inherit;" vertex="1" parent="AIi3PwNUS5Vkqz0hZRpa-8">
          <mxGeometry y="560" width="640" height="8" as="geometry" />
        </mxCell>
        <mxCell id="AIi3PwNUS5Vkqz0hZRpa-13" value="scoreboard" style="swimlane;fontStyle=1;align=center;verticalAlign=top;childLayout=stackLayout;horizontal=1;startSize=26;horizontalStack=0;resizeParent=1;resizeParentMax=0;resizeLast=0;collapsible=1;marginBottom=0;whiteSpace=wrap;html=1;" vertex="1" parent="1">
          <mxGeometry x="4870" y="-270" width="640" height="408" as="geometry" />
        </mxCell>
        <mxCell id="AIi3PwNUS5Vkqz0hZRpa-14" value="&lt;b style=&quot;font-size: 12px;&quot;&gt;/home/ICer/proj/cva6/verif/core-v-verif/lib/uvm_components/uvmc_rvfi_scoreboard/uvmc_rvfi_scoreboard.sv&lt;/b&gt;&lt;br&gt;&lt;br&gt;&lt;div style=&quot;&quot;&gt;&lt;span style=&quot;font-size: 12px;&quot;&gt;&amp;nbsp; &amp;nbsp; &lt;b&gt;st = cfg.to_struct();&lt;/b&gt;&lt;/span&gt;&lt;/div&gt;&lt;div style=&quot;&quot;&gt;&lt;span style=&quot;font-size: 12px;&quot;&gt;&amp;nbsp; &amp;nbsp; &lt;b&gt;&lt;font style=&quot;color: rgb(51, 51, 255);&quot;&gt;rvfi_initialize(st);&lt;/font&gt;&lt;/b&gt;&lt;/span&gt;&lt;/div&gt;" style="text;strokeColor=default;fillColor=default;align=left;verticalAlign=top;spacingLeft=4;spacingRight=4;overflow=hidden;rotatable=0;points=[[0,0.5],[1,0.5]];portConstraint=eastwest;whiteSpace=wrap;html=1;" vertex="1" parent="AIi3PwNUS5Vkqz0hZRpa-13">
          <mxGeometry y="26" width="640" height="74" as="geometry" />
        </mxCell>
        <mxCell id="AIi3PwNUS5Vkqz0hZRpa-15" value="&lt;b style=&quot;font-size: 12px;&quot;&gt;task uvmc_rvfi_scoreboard_c::run_phase(uvm_phase phase);&lt;/b&gt;&lt;br&gt;&lt;b&gt;&lt;br&gt;&lt;/b&gt;&lt;div style=&quot;&quot;&gt;&lt;span style=&quot;font-size: 12px;&quot;&gt;&amp;nbsp; &amp;nbsp; sim_finished = 0;&lt;/span&gt;&lt;/div&gt;&lt;div style=&quot;&quot;&gt;&lt;span style=&quot;font-size: 12px;&quot;&gt;&amp;nbsp; &amp;nbsp; phase.raise_objection(this);&lt;/span&gt;&lt;/div&gt;&lt;div style=&quot;&quot;&gt;&lt;span style=&quot;font-size: 12px;&quot;&gt;&amp;nbsp; &amp;nbsp; while (!sim_finished) begin&lt;/span&gt;&lt;/div&gt;&lt;div style=&quot;&quot;&gt;&lt;span style=&quot;font-size: 12px;&quot;&gt;&amp;nbsp; &amp;nbsp; &amp;nbsp; &amp;nbsp; &lt;span style=&quot;background-color: rgb(185, 224, 165);&quot;&gt;&lt;b&gt;@(reference_model.size &amp;gt; 0)&lt;/b&gt;&lt;/span&gt;&lt;/span&gt;&lt;/div&gt;&lt;div style=&quot;&quot;&gt;&lt;span style=&quot;font-size: 12px;&quot;&gt;&amp;nbsp; &amp;nbsp; &amp;nbsp; &amp;nbsp; while (reference_model.size &amp;gt; 0 &amp;amp;&amp;amp; !sim_finished)&lt;/span&gt;&lt;/div&gt;&lt;div style=&quot;&quot;&gt;&lt;span style=&quot;font-size: 12px;&quot;&gt;&amp;nbsp; &amp;nbsp; &amp;nbsp; &amp;nbsp; begin&lt;/span&gt;&lt;/div&gt;" style="text;strokeColor=default;fillColor=default;align=left;verticalAlign=top;spacingLeft=4;spacingRight=4;overflow=hidden;rotatable=0;points=[[0,0.5],[1,0.5]];portConstraint=eastwest;whiteSpace=wrap;html=1;" vertex="1" parent="AIi3PwNUS5Vkqz0hZRpa-13">
          <mxGeometry y="100" width="640" height="130" as="geometry" />
        </mxCell>
        <mxCell id="AIi3PwNUS5Vkqz0hZRpa-36" value="&lt;div style=&quot;&quot;&gt;&lt;span style=&quot;font-size: 12px;&quot;&gt;&amp;nbsp; &amp;nbsp; &amp;nbsp; &amp;nbsp; &amp;nbsp; &amp;nbsp; t_core = core.pop_front();&lt;/span&gt;&lt;/div&gt;" style="text;strokeColor=default;fillColor=default;align=left;verticalAlign=top;spacingLeft=4;spacingRight=4;overflow=hidden;rotatable=0;points=[[0,0.5],[1,0.5]];portConstraint=eastwest;whiteSpace=wrap;html=1;" vertex="1" parent="AIi3PwNUS5Vkqz0hZRpa-13">
          <mxGeometry y="230" width="640" height="30" as="geometry" />
        </mxCell>
        <mxCell id="AIi3PwNUS5Vkqz0hZRpa-35" value="&lt;div style=&quot;&quot;&gt;&lt;span style=&quot;font-size: 12px;&quot;&gt;&amp;nbsp; &amp;nbsp; &amp;nbsp; &amp;nbsp; &amp;nbsp; &amp;nbsp; t_reference_model = reference_model.pop_front();&lt;/span&gt;&lt;/div&gt;" style="text;strokeColor=default;fillColor=default;align=left;verticalAlign=top;spacingLeft=4;spacingRight=4;overflow=hidden;rotatable=0;points=[[0,0.5],[1,0.5]];portConstraint=eastwest;whiteSpace=wrap;html=1;" vertex="1" parent="AIi3PwNUS5Vkqz0hZRpa-13">
          <mxGeometry y="260" width="640" height="30" as="geometry" />
        </mxCell>
        <mxCell id="AIi3PwNUS5Vkqz0hZRpa-34" value="&lt;div style=&quot;&quot;&gt;&lt;span style=&quot;font-size: 12px;&quot;&gt;&amp;nbsp; &amp;nbsp; &amp;nbsp; &amp;nbsp; &amp;nbsp; &amp;nbsp;&amp;nbsp;&lt;span style=&quot;background-color: rgb(185, 224, 165);&quot;&gt;&lt;b&gt;rvfi_compare(t_core.seq2rvfi(), t_reference_model.seq2rvfi());&lt;/b&gt;&lt;/span&gt;&lt;/span&gt;&lt;/div&gt;&lt;div style=&quot;&quot;&gt;&lt;span style=&quot;font-size: 12px;&quot;&gt;&lt;br&gt;&lt;/span&gt;&lt;/div&gt;&lt;div style=&quot;&quot;&gt;&lt;span style=&quot;font-size: 12px;&quot;&gt;&amp;nbsp; &amp;nbsp; &amp;nbsp; &amp;nbsp; &amp;nbsp; &amp;nbsp; if (t_reference_model.halt || (sentinel_enable &amp;amp;&amp;amp; (sentinel_value == t_reference_model.insn)))&lt;/span&gt;&lt;/div&gt;&lt;div style=&quot;&quot;&gt;&lt;span style=&quot;font-size: 12px;&quot;&gt;&amp;nbsp; &amp;nbsp; &amp;nbsp; &amp;nbsp; &amp;nbsp; &amp;nbsp; &amp;nbsp; &amp;nbsp; sim_finished = 1;&lt;/span&gt;&lt;/div&gt;&lt;div style=&quot;&quot;&gt;&lt;span style=&quot;font-size: 12px;&quot;&gt;&amp;nbsp; &amp;nbsp; &amp;nbsp; &amp;nbsp; end&lt;/span&gt;&lt;/div&gt;&lt;div style=&quot;&quot;&gt;&lt;span style=&quot;font-size: 12px;&quot;&gt;&amp;nbsp; &amp;nbsp; end&lt;/span&gt;&lt;/div&gt;" style="text;strokeColor=default;fillColor=default;align=left;verticalAlign=top;spacingLeft=4;spacingRight=4;overflow=hidden;rotatable=0;points=[[0,0.5],[1,0.5]];portConstraint=eastwest;whiteSpace=wrap;html=1;" vertex="1" parent="AIi3PwNUS5Vkqz0hZRpa-13">
          <mxGeometry y="290" width="640" height="110" as="geometry" />
        </mxCell>
        <mxCell id="AIi3PwNUS5Vkqz0hZRpa-17" value="" style="line;strokeWidth=1;fillColor=none;align=left;verticalAlign=middle;spacingTop=-1;spacingLeft=3;spacingRight=3;rotatable=0;labelPosition=right;points=[];portConstraint=eastwest;strokeColor=inherit;" vertex="1" parent="AIi3PwNUS5Vkqz0hZRpa-13">
          <mxGeometry y="400" width="640" height="8" as="geometry" />
        </mxCell>
        <mxCell id="AIi3PwNUS5Vkqz0hZRpa-18" value="reference model" style="swimlane;fontStyle=1;align=center;verticalAlign=top;childLayout=stackLayout;horizontal=1;startSize=26;horizontalStack=0;resizeParent=1;resizeParentMax=0;resizeLast=0;collapsible=1;marginBottom=0;whiteSpace=wrap;html=1;" vertex="1" parent="1">
          <mxGeometry x="2670" y="740" width="690" height="676" as="geometry" />
        </mxCell>
        <mxCell id="AIi3PwNUS5Vkqz0hZRpa-19" value="&lt;span style=&quot;font-size: 12px;&quot;&gt;&lt;b&gt;/home/ICer/proj/cva6/verif/core-v-verif/lib/uvm_components/uvmc_rvfi_reference_model/uvmc_rvfi_spike.sv&lt;/b&gt;&lt;/span&gt;" style="text;strokeColor=default;fillColor=default;align=left;verticalAlign=top;spacingLeft=4;spacingRight=4;overflow=hidden;rotatable=0;points=[[0,0.5],[1,0.5]];portConstraint=eastwest;whiteSpace=wrap;html=1;" vertex="1" parent="AIi3PwNUS5Vkqz0hZRpa-18">
          <mxGeometry y="26" width="690" height="54" as="geometry" />
        </mxCell>
        <mxCell id="AIi3PwNUS5Vkqz0hZRpa-20" value="&lt;span style=&quot;font-size: 12px;&quot;&gt;function void build_phase(uvm_phase phase);&lt;br&gt;&lt;/span&gt;&lt;div&gt;&lt;div&gt;&lt;span style=&quot;font-size: 12px;&quot;&gt;&amp;nbsp; &amp;nbsp; &amp;nbsp; &amp;nbsp;st_core_cntrl_cfg st;&lt;/span&gt;&lt;/div&gt;&lt;div&gt;&lt;span style=&quot;font-size: 12px;&quot;&gt;&amp;nbsp; &amp;nbsp; &amp;nbsp; &amp;nbsp;super.build_phase(phase);&lt;/span&gt;&lt;/div&gt;&lt;div&gt;&lt;span style=&quot;font-size: 12px;&quot;&gt;&lt;br&gt;&lt;/span&gt;&lt;/div&gt;&lt;div&gt;&lt;span style=&quot;font-size: 12px;&quot;&gt;&amp;nbsp; &amp;nbsp; &amp;nbsp; &amp;nbsp;st = cfg.to_struct();&lt;/span&gt;&lt;/div&gt;&lt;div&gt;&lt;span style=&quot;font-size: 12px;&quot;&gt;&amp;nbsp; &amp;nbsp; &amp;nbsp; &amp;nbsp;&lt;span style=&quot;background-color: rgb(185, 224, 165);&quot;&gt;&lt;b&gt;rvfi_initialize_spike(cfg.core_name, st);&lt;/b&gt;&lt;/span&gt;&lt;/span&gt;&lt;/div&gt;&lt;/div&gt;&lt;div&gt;&lt;span style=&quot;font-size: 12px;&quot;&gt;endfunction : build_phase&lt;/span&gt;&lt;/div&gt;" style="text;strokeColor=default;fillColor=default;align=left;verticalAlign=top;spacingLeft=4;spacingRight=4;overflow=hidden;rotatable=0;points=[[0,0.5],[1,0.5]];portConstraint=eastwest;whiteSpace=wrap;html=1;" vertex="1" parent="AIi3PwNUS5Vkqz0hZRpa-18">
          <mxGeometry y="80" width="690" height="130" as="geometry" />
        </mxCell>
        <mxCell id="AIi3PwNUS5Vkqz0hZRpa-53" value="&lt;div&gt;&lt;span style=&quot;font-size: 12px;&quot;&gt;/*&lt;/span&gt;&lt;/div&gt;&lt;div&gt;&lt;span style=&quot;font-size: 12px;&quot;&gt;&amp;nbsp;* Write RVFI transactions to send to the scoreboard&lt;/span&gt;&lt;/div&gt;&lt;div&gt;&lt;span style=&quot;font-size: 12px;&quot;&gt;&amp;nbsp;*/&lt;/span&gt;&lt;/div&gt;&lt;div&gt;&lt;span style=&quot;font-size: 12px;&quot;&gt;virtual function void write_rvfi_instr(uvma_rvfi_instr_seq_item_c#(ILEN,XLEN) t);&lt;/span&gt;&lt;/div&gt;&lt;div&gt;&lt;span style=&quot;font-size: 12px;&quot;&gt;&lt;br&gt;&lt;/span&gt;&lt;/div&gt;&lt;div&gt;&lt;span style=&quot;font-size: 12px;&quot;&gt;&amp;nbsp; &amp;nbsp; &lt;span style=&quot;background-color: rgb(185, 224, 165);&quot;&gt;uvma_rvfi_instr_seq_item_c#(ILEN,XLEN) t_reference_model = step(1, t);&lt;/span&gt;&lt;/span&gt;&lt;/div&gt;&lt;div&gt;&lt;span style=&quot;font-size: 12px;&quot;&gt;&amp;nbsp; &amp;nbsp; m_analysis_port.write(t_reference_model);&lt;/span&gt;&lt;/div&gt;&lt;div&gt;&lt;span style=&quot;font-size: 12px;&quot;&gt;&lt;br&gt;&lt;/span&gt;&lt;/div&gt;&lt;div&gt;&lt;span style=&quot;font-size: 12px;&quot;&gt;endfunction : write_rvfi_instr&lt;/span&gt;&lt;/div&gt;" style="text;strokeColor=default;fillColor=default;align=left;verticalAlign=top;spacingLeft=4;spacingRight=4;overflow=hidden;rotatable=0;points=[[0,0.5],[1,0.5]];portConstraint=eastwest;whiteSpace=wrap;html=1;" vertex="1" parent="AIi3PwNUS5Vkqz0hZRpa-18">
          <mxGeometry y="210" width="690" height="150" as="geometry" />
        </mxCell>
        <mxCell id="AIi3PwNUS5Vkqz0hZRpa-46" value="&lt;div&gt;&lt;span style=&quot;font-size: 12px;&quot;&gt;&amp;nbsp; &amp;nbsp;/**&lt;/span&gt;&lt;/div&gt;&lt;div&gt;&lt;span style=&quot;font-size: 12px;&quot;&gt;&amp;nbsp; &amp;nbsp; * Step function - Steps the core and returns a rvfi transaction&lt;/span&gt;&lt;/div&gt;&lt;div&gt;&lt;span style=&quot;font-size: 12px;&quot;&gt;&amp;nbsp; &amp;nbsp; */&lt;/span&gt;&lt;/div&gt;&lt;div&gt;&lt;span style=&quot;font-size: 12px;&quot;&gt;&amp;nbsp; &amp;nbsp;virtual function uvma_rvfi_instr_seq_item_c#(ILEN,XLEN) &lt;b&gt;step &lt;/b&gt;(int i, &lt;span style=&quot;background-color: rgb(185, 224, 165);&quot;&gt;&lt;b&gt;uvma_rvfi_instr_seq_item_c#(ILEN,XLEN) t&lt;/b&gt;&lt;/span&gt;);&lt;/span&gt;&lt;/div&gt;&lt;div&gt;&lt;span style=&quot;font-size: 12px;&quot;&gt;&amp;nbsp; &amp;nbsp; &amp;nbsp; &amp;nbsp;&lt;span style=&quot;background-color: rgb(185, 224, 165);&quot;&gt;st_rvfi s_core, s_reference_model;&lt;/span&gt;&lt;/span&gt;&lt;/div&gt;&lt;div&gt;&lt;span style=&quot;font-size: 12px;&quot;&gt;&amp;nbsp; &amp;nbsp; &amp;nbsp; &amp;nbsp;uvma_rvfi_instr_seq_item_c#(ILEN,XLEN) t_reference_model;&lt;/span&gt;&lt;/div&gt;&lt;div&gt;&lt;span style=&quot;font-size: 12px;&quot;&gt;&lt;br&gt;&lt;/span&gt;&lt;/div&gt;&lt;div&gt;&lt;span style=&quot;font-size: 12px;&quot;&gt;&amp;nbsp; &amp;nbsp; &amp;nbsp; &amp;nbsp;&lt;span style=&quot;background-color: rgb(185, 224, 165);&quot;&gt;s_core = t.seq2rvfi();&lt;/span&gt;&lt;/span&gt;&lt;/div&gt;&lt;div&gt;&lt;span style=&quot;font-size: 12px;&quot;&gt;&lt;br&gt;&lt;/span&gt;&lt;/div&gt;&lt;div&gt;&lt;span style=&quot;font-size: 12px;&quot;&gt;&amp;nbsp; &amp;nbsp; &amp;nbsp; &amp;nbsp;&lt;b style=&quot;background-color: rgb(185, 224, 165);&quot;&gt;rvfi_spike_step(s_core, s_reference_model);&lt;/b&gt;&lt;/span&gt;&lt;/div&gt;&lt;div&gt;&lt;span style=&quot;font-size: 12px;&quot;&gt;&lt;br&gt;&lt;/span&gt;&lt;/div&gt;&lt;div&gt;&lt;span style=&quot;font-size: 12px;&quot;&gt;&amp;nbsp; &amp;nbsp; &amp;nbsp; &amp;nbsp;t_reference_model = new(&quot;t_reference_model&quot;);&lt;/span&gt;&lt;/div&gt;&lt;div&gt;&lt;span style=&quot;font-size: 12px;&quot;&gt;&amp;nbsp; &amp;nbsp; &amp;nbsp; &amp;nbsp;&lt;span style=&quot;background-color: rgb(185, 224, 165);&quot;&gt;t_reference_model.rvfi2seq(s_reference_model);&lt;/span&gt;&lt;/span&gt;&lt;/div&gt;&lt;div&gt;&lt;span style=&quot;font-size: 12px;&quot;&gt;&amp;nbsp; &amp;nbsp; &amp;nbsp; &amp;nbsp;return t_reference_model;&lt;/span&gt;&lt;/div&gt;&lt;div&gt;&lt;span style=&quot;font-size: 12px;&quot;&gt;&amp;nbsp; &amp;nbsp;endfunction : step&lt;/span&gt;&lt;/div&gt;" style="text;strokeColor=default;fillColor=default;align=left;verticalAlign=top;spacingLeft=4;spacingRight=4;overflow=hidden;rotatable=0;points=[[0,0.5],[1,0.5]];portConstraint=eastwest;whiteSpace=wrap;html=1;" vertex="1" parent="AIi3PwNUS5Vkqz0hZRpa-18">
          <mxGeometry y="360" width="690" height="230" as="geometry" />
        </mxCell>
        <mxCell id="AIi3PwNUS5Vkqz0hZRpa-47" value="" style="text;strokeColor=default;fillColor=default;align=left;verticalAlign=top;spacingLeft=4;spacingRight=4;overflow=hidden;rotatable=0;points=[[0,0.5],[1,0.5]];portConstraint=eastwest;whiteSpace=wrap;html=1;" vertex="1" parent="AIi3PwNUS5Vkqz0hZRpa-18">
          <mxGeometry y="590" width="690" height="78" as="geometry" />
        </mxCell>
        <mxCell id="AIi3PwNUS5Vkqz0hZRpa-22" value="" style="line;strokeWidth=1;fillColor=none;align=left;verticalAlign=middle;spacingTop=-1;spacingLeft=3;spacingRight=3;rotatable=0;labelPosition=right;points=[];portConstraint=eastwest;strokeColor=inherit;" vertex="1" parent="AIi3PwNUS5Vkqz0hZRpa-18">
          <mxGeometry y="668" width="690" height="8" as="geometry" />
        </mxCell>
        <mxCell id="AIi3PwNUS5Vkqz0hZRpa-54" value="Call model step" style="html=1;verticalAlign=bottom;endArrow=block;curved=0;rounded=0;entryX=0;entryY=0.5;entryDx=0;entryDy=0;strokeWidth=5;fillColor=#fff2cc;strokeColor=#d6b656;" edge="1" parent="AIi3PwNUS5Vkqz0hZRpa-18" target="AIi3PwNUS5Vkqz0hZRpa-46">
          <mxGeometry width="80" relative="1" as="geometry">
            <mxPoint x="690" y="290" as="sourcePoint" />
            <mxPoint x="120" y="1085" as="targetPoint" />
            <Array as="points">
              <mxPoint x="800" y="290" />
              <mxPoint x="800" y="740" />
              <mxPoint x="-140" y="740" />
              <mxPoint x="-140" y="475" />
            </Array>
          </mxGeometry>
        </mxCell>
        <mxCell id="AIi3PwNUS5Vkqz0hZRpa-23" value="env" style="swimlane;fontStyle=1;align=center;verticalAlign=top;childLayout=stackLayout;horizontal=1;startSize=26;horizontalStack=0;resizeParent=1;resizeParentMax=0;resizeLast=0;collapsible=1;marginBottom=0;whiteSpace=wrap;html=1;" vertex="1" parent="1">
          <mxGeometry x="1610" y="-420" width="640" height="508" as="geometry" />
        </mxCell>
        <mxCell id="AIi3PwNUS5Vkqz0hZRpa-24" value="&lt;span style=&quot;font-size: 12px;&quot;&gt;&lt;b&gt;/home/ICer/proj/cva6/verif/env/uvme/uvme_cva6_env.sv&lt;/b&gt;&lt;/span&gt;" style="text;strokeColor=default;fillColor=default;align=left;verticalAlign=top;spacingLeft=4;spacingRight=4;overflow=hidden;rotatable=0;points=[[0,0.5],[1,0.5]];portConstraint=eastwest;whiteSpace=wrap;html=1;" vertex="1" parent="AIi3PwNUS5Vkqz0hZRpa-23">
          <mxGeometry y="26" width="640" height="94" as="geometry" />
        </mxCell>
        <mxCell id="AIi3PwNUS5Vkqz0hZRpa-25" value="&lt;b&gt;/home/ICer/proj/cva6/verif/env/uvme/uvme_cva6_env.sv&lt;br&gt;&lt;/b&gt;&lt;div&gt;&lt;span style=&quot;background-color: transparent; color: light-dark(rgb(0, 0, 0), rgb(255, 255, 255));&quot;&gt;&lt;br&gt;&lt;/span&gt;&lt;/div&gt;&lt;div&gt;&lt;span style=&quot;background-color: transparent; font-size: 12px;&quot;&gt;&lt;b&gt;&lt;div style=&quot;&quot;&gt;if ($test$plusargs(&quot;tandem enabled&quot;))&lt;/div&gt;&lt;div style=&quot;&quot;&gt;&amp;nbsp; &amp;nbsp; $value$plusargs(&quot;tandem enabled=%b&quot;,cfg.tandem_enabled);&lt;/div&gt;&lt;/b&gt;&lt;/span&gt;&lt;/div&gt;&lt;div&gt;&lt;span style=&quot;background-color: transparent; color: light-dark(rgb(0, 0, 0), rgb(255, 255, 255));&quot;&gt;&lt;br&gt;&lt;/span&gt;&lt;/div&gt;&lt;div&gt;&lt;span style=&quot;background-color: transparent; color: light-dark(rgb(0, 0, 0), rgb(255, 255, 255));&quot;&gt;if (cfg.tandem_enabled) begin&lt;/span&gt;&lt;/div&gt;&lt;div&gt;&lt;div&gt;&lt;span style=&quot;font-size: 12px;&quot;&gt;&amp;nbsp; &amp;nbsp; reference_model = uvmc_rvfi_reference_model#(ILEN,XLEN)::type_id::create(&quot;reference_model&quot;, this);&lt;/span&gt;&lt;/div&gt;&lt;div&gt;&lt;span style=&quot;font-size: 12px;&quot;&gt;end&lt;/span&gt;&lt;br&gt;&lt;br&gt;&lt;div style=&quot;&quot;&gt;&lt;span style=&quot;font-size: 12px;&quot;&gt;if (cfg.scoreboard_enabled || cfg.tandem_enabled) begin&lt;/span&gt;&lt;/div&gt;&lt;div style=&quot;&quot;&gt;&lt;span style=&quot;font-size: 12px;&quot;&gt;&amp;nbsp; &amp;nbsp; sb&amp;nbsp; &amp;nbsp; &amp;nbsp; &amp;nbsp; = uvme_cva6_sb_c ::type_id::create(&quot;sb&quot;&amp;nbsp; &amp;nbsp; &amp;nbsp; &amp;nbsp;, this);&lt;/span&gt;&lt;/div&gt;&lt;div style=&quot;&quot;&gt;&lt;span style=&quot;font-size: 12px;&quot;&gt;end&lt;br&gt;&lt;br&gt;&lt;div&gt;if (cfg.tandem_enabled) begin&lt;/div&gt;&lt;div&gt;&amp;nbsp; &amp;nbsp; &lt;b style=&quot;background-color: rgb(185, 224, 165);&quot;&gt;rvfi_agent.rvfi_core_ap.connect(sb.m_rvfi_scoreboard.m_imp_core);&lt;/b&gt;&lt;/div&gt;&lt;div&gt;&amp;nbsp; &amp;nbsp; &lt;span style=&quot;background-color: rgb(185, 224, 165);&quot;&gt;&lt;b&gt;rvfi_agent.rvfi_core_ap.connect(reference_model.m_analysis_imp);&lt;/b&gt;&lt;/span&gt;&lt;/div&gt;&lt;div&gt;&amp;nbsp; &amp;nbsp; &lt;span style=&quot;background-color: rgb(185, 224, 165);&quot;&gt;&lt;b&gt;reference_model.m_analysis_port.connect(sb.m_rvfi_scoreboard.m_imp_reference_model);&lt;/b&gt;&lt;/span&gt;&lt;/div&gt;&lt;div&gt;end&lt;/div&gt;&lt;/span&gt;&lt;/div&gt;&lt;/div&gt;&lt;/div&gt;" style="text;strokeColor=default;fillColor=default;align=left;verticalAlign=top;spacingLeft=4;spacingRight=4;overflow=hidden;rotatable=0;points=[[0,0.5],[1,0.5]];portConstraint=eastwest;whiteSpace=wrap;html=1;" vertex="1" parent="AIi3PwNUS5Vkqz0hZRpa-23">
          <mxGeometry y="120" width="640" height="284" as="geometry" />
        </mxCell>
        <mxCell id="AIi3PwNUS5Vkqz0hZRpa-26" value="&lt;b&gt;/home/ICer/proj/cva6/verif/env/uvme/uvme_cva6_sb.sv&lt;br&gt;&lt;/b&gt;&lt;br&gt;&lt;div&gt;&lt;span style=&quot;font-size: 12px;&quot;&gt;if (cfg.tandem_enabled)&lt;/span&gt;&lt;/div&gt;&lt;div&gt;&lt;span style=&quot;font-size: 12px;&quot;&gt;&amp;nbsp; &amp;nbsp; &amp;nbsp; &amp;nbsp; m_rvfi_scoreboard = uvmc_rvfi_scoreboard_c#(ILEN,XLEN)::type_id::create(&quot;m_rvfi_scoreboard&quot;, this);&lt;/span&gt;&lt;/div&gt;" style="text;strokeColor=default;fillColor=default;align=left;verticalAlign=top;spacingLeft=4;spacingRight=4;overflow=hidden;rotatable=0;points=[[0,0.5],[1,0.5]];portConstraint=eastwest;whiteSpace=wrap;html=1;" vertex="1" parent="AIi3PwNUS5Vkqz0hZRpa-23">
          <mxGeometry y="404" width="640" height="96" as="geometry" />
        </mxCell>
        <mxCell id="AIi3PwNUS5Vkqz0hZRpa-27" value="" style="line;strokeWidth=1;fillColor=none;align=left;verticalAlign=middle;spacingTop=-1;spacingLeft=3;spacingRight=3;rotatable=0;labelPosition=right;points=[];portConstraint=eastwest;strokeColor=inherit;" vertex="1" parent="AIi3PwNUS5Vkqz0hZRpa-23">
          <mxGeometry y="500" width="640" height="8" as="geometry" />
        </mxCell>
        <mxCell id="AIi3PwNUS5Vkqz0hZRpa-29" value="monitor" style="swimlane;fontStyle=1;align=center;verticalAlign=top;childLayout=stackLayout;horizontal=1;startSize=26;horizontalStack=0;resizeParent=1;resizeParentMax=0;resizeLast=0;collapsible=1;marginBottom=0;whiteSpace=wrap;html=1;" vertex="1" parent="1">
          <mxGeometry x="2670" y="-1040" width="690" height="1508" as="geometry" />
        </mxCell>
        <mxCell id="AIi3PwNUS5Vkqz0hZRpa-30" value="&lt;span style=&quot;font-size: 12px;&quot;&gt;&lt;b&gt;/home/ICer/proj/cva6/verif/core-v-verif/lib/uvm_agents/uvma_rvfi/uvma_rvfi_instr_mon.sv&lt;/b&gt;&lt;/span&gt;" style="text;strokeColor=default;fillColor=default;align=left;verticalAlign=top;spacingLeft=4;spacingRight=4;overflow=hidden;rotatable=0;points=[[0,0.5],[1,0.5]];portConstraint=eastwest;whiteSpace=wrap;html=1;" vertex="1" parent="AIi3PwNUS5Vkqz0hZRpa-29">
          <mxGeometry y="26" width="690" height="134" as="geometry" />
        </mxCell>
        <mxCell id="AIi3PwNUS5Vkqz0hZRpa-31" value="&lt;div style=&quot;&quot;&gt;&lt;span style=&quot;font-size: 12px;&quot;&gt;&lt;b&gt;task uvma_rvfi_instr_mon_c::monitor_rvfi_instr();&lt;/b&gt;&lt;/span&gt;&lt;/div&gt;&lt;div style=&quot;font-weight: bold;&quot;&gt;&lt;br&gt;&lt;/div&gt;&lt;div&gt;&lt;span style=&quot;background-color: transparent; color: light-dark(rgb(0, 0, 0), rgb(255, 255, 255));&quot;&gt;&lt;br&gt;&lt;/span&gt;&lt;/div&gt;&lt;div&gt;&lt;span style=&quot;background-color: transparent;&quot;&gt;&lt;div style=&quot;&quot;&gt;&lt;div style=&quot;font-size: 12px;&quot;&gt;&amp;nbsp; while(1) begin&lt;/div&gt;&lt;div style=&quot;font-size: 12px;&quot;&gt;&amp;nbsp; &amp;nbsp; &amp;nbsp; @(cntxt.instr_vif[0].mon_cb)&lt;br&gt;&lt;br&gt;&lt;/div&gt;&lt;div style=&quot;&quot;&gt;&lt;div style=&quot;&quot;&gt;&lt;span style=&quot;font-size: 12px;&quot;&gt;&amp;nbsp; &amp;nbsp; &amp;nbsp; for(int i = 0; i &amp;lt; cfg.nret; i++)&lt;/span&gt;&lt;/div&gt;&lt;div style=&quot;&quot;&gt;&lt;span style=&quot;font-size: 12px;&quot;&gt;&amp;nbsp; &amp;nbsp; &amp;nbsp; begin&lt;/span&gt;&lt;/div&gt;&lt;div style=&quot;&quot;&gt;&lt;div&gt;&amp;nbsp; &amp;nbsp; &amp;nbsp; &amp;nbsp; &amp;nbsp; if (monitor_condition) begin&lt;/div&gt;&lt;/div&gt;&lt;/div&gt;&lt;/div&gt;&lt;/span&gt;&lt;/div&gt;" style="text;strokeColor=default;fillColor=default;align=left;verticalAlign=top;spacingLeft=4;spacingRight=4;overflow=hidden;rotatable=0;points=[[0,0.5],[1,0.5]];portConstraint=eastwest;whiteSpace=wrap;html=1;" vertex="1" parent="AIi3PwNUS5Vkqz0hZRpa-29">
          <mxGeometry y="160" width="690" height="140" as="geometry" />
        </mxCell>
        <mxCell id="AIi3PwNUS5Vkqz0hZRpa-37" value="&lt;div style=&quot;&quot;&gt;&lt;span style=&quot;background-color: transparent; color: light-dark(rgb(0, 0, 0), rgb(255, 255, 255));&quot;&gt;&amp;nbsp; &amp;nbsp; &amp;nbsp; &amp;nbsp; &amp;nbsp; &amp;nbsp; &amp;nbsp; uvma_rvfi_instr_seq_item_c#(ILEN,XLEN) mon_trn;&lt;/span&gt;&lt;/div&gt;&lt;div&gt;&lt;span style=&quot;background-color: transparent;&quot;&gt;&lt;div style=&quot;&quot;&gt;&lt;div style=&quot;&quot;&gt;&lt;div style=&quot;&quot;&gt;&lt;div&gt;&lt;div&gt;&lt;span style=&quot;font-size: 12px;&quot;&gt;&amp;nbsp; &amp;nbsp; &amp;nbsp; &amp;nbsp; &amp;nbsp; &amp;nbsp; &amp;nbsp; mon_trn = uvma_rvfi_instr_seq_item_c#(ILEN,XLEN)::type_id::create(&quot;mon_trn&quot;);&lt;/span&gt;&lt;/div&gt;&lt;div&gt;&lt;span style=&quot;font-size: 12px;&quot;&gt;&lt;br&gt;&lt;/span&gt;&lt;/div&gt;&lt;div&gt;&lt;span style=&quot;font-size: 12px;&quot;&gt;&amp;nbsp; &amp;nbsp; &amp;nbsp; &amp;nbsp; &amp;nbsp; &amp;nbsp; &amp;nbsp; mon_trn.nret_id&amp;nbsp; = nret_id;&lt;/span&gt;&lt;/div&gt;&lt;div&gt;&lt;span style=&quot;font-size: 12px;&quot;&gt;&amp;nbsp; &amp;nbsp; &amp;nbsp; &amp;nbsp; &amp;nbsp; &amp;nbsp; &amp;nbsp; mon_trn.cycle_cnt = cntxt.instr_vif[nret_id].mon_cb.cycle_cnt&lt;/span&gt;&lt;/div&gt;&lt;/div&gt;&lt;div&gt;&lt;span style=&quot;font-size: 12px;&quot;&gt;&lt;br&gt;&lt;/span&gt;&lt;/div&gt;&lt;div&gt;&lt;span style=&quot;font-size: 12px;&quot;&gt;&amp;nbsp; &amp;nbsp; &amp;nbsp; &amp;nbsp; &amp;nbsp; &amp;nbsp; &amp;nbsp;&amp;nbsp;&lt;/span&gt;&lt;span style=&quot;background-color: transparent; font-size: 12px;&quot;&gt;mon_trn.order&amp;nbsp; &amp;nbsp; &amp;nbsp;= cntxt.instr_vif[nret_id].mon_cb.rvfi_order;&lt;br&gt;&amp;nbsp; &amp;nbsp; &amp;nbsp; &amp;nbsp; &amp;nbsp; &amp;nbsp; &amp;nbsp;&amp;nbsp;&lt;/span&gt;&lt;span style=&quot;background-color: transparent; font-size: 12px;&quot;&gt;mon_trn....&amp;nbsp; &amp;nbsp; &amp;nbsp; &amp;nbsp; &amp;nbsp; &amp;nbsp;= cntxt.instr_vif[nret_id].mon_cb......;&lt;/span&gt;&lt;/div&gt;&lt;/div&gt;&lt;/div&gt;&lt;/div&gt;&lt;/span&gt;&lt;/div&gt;" style="text;strokeColor=default;fillColor=default;align=left;verticalAlign=top;spacingLeft=4;spacingRight=4;overflow=hidden;rotatable=0;points=[[0,0.5],[1,0.5]];portConstraint=eastwest;whiteSpace=wrap;html=1;" vertex="1" parent="AIi3PwNUS5Vkqz0hZRpa-29">
          <mxGeometry y="300" width="690" height="130" as="geometry" />
        </mxCell>
        <mxCell id="AIi3PwNUS5Vkqz0hZRpa-41" value="&lt;div style=&quot;&quot;&gt;&lt;div&gt;&lt;span style=&quot;font-size: 12px;&quot;&gt;&amp;nbsp; &amp;nbsp; &amp;nbsp; &amp;nbsp; &amp;nbsp; &amp;nbsp; &amp;nbsp; // Get the CSRs&lt;/span&gt;&lt;/div&gt;&lt;div&gt;&lt;span style=&quot;font-size: 12px;&quot;&gt;&amp;nbsp; &amp;nbsp; &amp;nbsp; &amp;nbsp; &amp;nbsp; &amp;nbsp; &amp;nbsp; if (!cfg.core_cfg.disable_all_csr_checks) begin&lt;/span&gt;&lt;/div&gt;&lt;/div&gt;" style="text;strokeColor=default;fillColor=default;align=left;verticalAlign=top;spacingLeft=4;spacingRight=4;overflow=hidden;rotatable=0;points=[[0,0.5],[1,0.5]];portConstraint=eastwest;whiteSpace=wrap;html=1;" vertex="1" parent="AIi3PwNUS5Vkqz0hZRpa-29">
          <mxGeometry y="430" width="690" height="40" as="geometry" />
        </mxCell>
        <mxCell id="AIi3PwNUS5Vkqz0hZRpa-39" value="&lt;div style=&quot;&quot;&gt;&lt;div&gt;&lt;span style=&quot;background-color: transparent; color: light-dark(rgb(0, 0, 0), rgb(255, 255, 255));&quot;&gt;&amp;nbsp; &amp;nbsp; &amp;nbsp; &amp;nbsp; &amp;nbsp; &amp;nbsp; &amp;nbsp; &amp;nbsp; &amp;nbsp; if (!cfg.unified_csr_vif) begin&lt;/span&gt;&lt;/div&gt;&lt;div&gt;&amp;nbsp; &amp;nbsp; &amp;nbsp; &amp;nbsp; &amp;nbsp; &amp;nbsp; &amp;nbsp; &amp;nbsp; &amp;nbsp; &amp;nbsp; &amp;nbsp; &amp;nbsp;foreach (cntxt.csr_vif[csr]) begin&lt;/div&gt;&lt;div&gt;&amp;nbsp; &amp;nbsp; &amp;nbsp; &amp;nbsp; &amp;nbsp; &amp;nbsp; &amp;nbsp; &amp;nbsp; &amp;nbsp; &amp;nbsp; &amp;nbsp; &amp;nbsp; &amp;nbsp; &amp;nbsp;uvma_rvfi_csr_seq_item_c csr_trn = uvma_rvfi_csr_seq_item_c#(XLEN)::type_id::create({csr, &quot;_trn&quot;});&lt;/div&gt;&lt;div&gt;&amp;nbsp; &amp;nbsp; &amp;nbsp; &amp;nbsp; &amp;nbsp; &amp;nbsp; &amp;nbsp; &amp;nbsp; &amp;nbsp; &amp;nbsp; &amp;nbsp; &amp;nbsp; &amp;nbsp; &amp;nbsp;csr_trn.csr = csr;&lt;/div&gt;&lt;div&gt;&amp;nbsp; &amp;nbsp; &amp;nbsp; &amp;nbsp; &amp;nbsp; &amp;nbsp; &amp;nbsp; &amp;nbsp; &amp;nbsp; &amp;nbsp; &amp;nbsp; &amp;nbsp; &amp;nbsp; &amp;nbsp;csr_trn.nret_id = nret_id;&lt;/div&gt;&lt;div&gt;&amp;nbsp; &amp;nbsp; &amp;nbsp; &amp;nbsp; &amp;nbsp; &amp;nbsp; &amp;nbsp; &amp;nbsp; &amp;nbsp; &amp;nbsp; &amp;nbsp; &amp;nbsp; &amp;nbsp; &amp;nbsp;csr_trn.rmask = cntxt.csr_vif[csr][nret_id].mon_cb.rvfi_csr_rmask;&lt;/div&gt;&lt;div&gt;&amp;nbsp; &amp;nbsp; &amp;nbsp; &amp;nbsp; &amp;nbsp; &amp;nbsp; &amp;nbsp; &amp;nbsp; &amp;nbsp; &amp;nbsp; &amp;nbsp; &amp;nbsp; &amp;nbsp; &amp;nbsp;csr_trn.wmask = cntxt.csr_vif[csr][nret_id].mon_cb.rvfi_csr_wmask;&lt;/div&gt;&lt;div&gt;&amp;nbsp; &amp;nbsp; &amp;nbsp; &amp;nbsp; &amp;nbsp; &amp;nbsp; &amp;nbsp; &amp;nbsp; &amp;nbsp; &amp;nbsp; &amp;nbsp; &amp;nbsp; &amp;nbsp; &amp;nbsp;csr_trn.rdata = cntxt.csr_vif[csr][nret_id].mon_cb.rvfi_csr_rdata;&lt;/div&gt;&lt;div&gt;&amp;nbsp; &amp;nbsp; &amp;nbsp; &amp;nbsp; &amp;nbsp; &amp;nbsp; &amp;nbsp; &amp;nbsp; &amp;nbsp; &amp;nbsp; &amp;nbsp; &amp;nbsp; &amp;nbsp; &amp;nbsp;csr_trn.wdata = cntxt.csr_vif[csr][nret_id].mon_cb.rvfi_csr_wdata;&lt;/div&gt;&lt;div&gt;&amp;nbsp; &amp;nbsp;&amp;nbsp;&lt;/div&gt;&lt;div&gt;&amp;nbsp; &amp;nbsp; &amp;nbsp; &amp;nbsp; &amp;nbsp; &amp;nbsp; &amp;nbsp; &amp;nbsp; &amp;nbsp; &amp;nbsp; &amp;nbsp; &amp;nbsp; &amp;nbsp; &amp;nbsp;mon_trn.name_csrs[csr] = csr_trn;&amp;nbsp; &amp;nbsp; &amp;nbsp; &amp;nbsp; &amp;nbsp; &amp;nbsp; &amp;nbsp; &amp;nbsp; &amp;nbsp;&amp;nbsp;&lt;/div&gt;&lt;div&gt;&amp;nbsp; &amp;nbsp; &amp;nbsp; &amp;nbsp; &amp;nbsp; &amp;nbsp; &amp;nbsp; &amp;nbsp; &amp;nbsp; &amp;nbsp; &amp;nbsp; &amp;nbsp;end&lt;/div&gt;&lt;div&gt;&amp;nbsp; &amp;nbsp; &amp;nbsp; &amp;nbsp; &amp;nbsp; &amp;nbsp; &amp;nbsp; &amp;nbsp; &amp;nbsp; end&lt;/div&gt;&lt;div&gt;&amp;nbsp; &amp;nbsp; &amp;nbsp; &amp;nbsp; &amp;nbsp; &amp;nbsp; &amp;nbsp; &amp;nbsp; &amp;nbsp; else begin&lt;/div&gt;&lt;div&gt;&amp;nbsp; &amp;nbsp; &amp;nbsp; &amp;nbsp; &amp;nbsp; &amp;nbsp; &amp;nbsp; &amp;nbsp; &amp;nbsp; &amp;nbsp; &amp;nbsp; &amp;nbsp; &amp;nbsp; uvma_rvfi_csr_seq_item_c csr_trn;&lt;/div&gt;&lt;div&gt;&amp;nbsp; &amp;nbsp; &amp;nbsp; &amp;nbsp; &amp;nbsp; &amp;nbsp; &amp;nbsp; &amp;nbsp; &amp;nbsp; &amp;nbsp; &amp;nbsp; &amp;nbsp; &amp;nbsp; longint unsigned addr;&lt;/div&gt;&lt;div&gt;&amp;nbsp; &amp;nbsp;&amp;nbsp;&lt;/div&gt;&lt;div&gt;&amp;nbsp; &amp;nbsp; &amp;nbsp; &amp;nbsp; &amp;nbsp; &amp;nbsp; &amp;nbsp; &amp;nbsp; &amp;nbsp; &amp;nbsp; &amp;nbsp; &amp;nbsp; &amp;nbsp; csr_trn = uvma_rvfi_csr_seq_item_c#(XLEN)::type_id::create({addr, &quot;_trn&quot;});&lt;/div&gt;&lt;div&gt;&amp;nbsp; &amp;nbsp; &amp;nbsp; &amp;nbsp; &amp;nbsp; &amp;nbsp; &amp;nbsp; &amp;nbsp; &amp;nbsp; &amp;nbsp; &amp;nbsp; &amp;nbsp; &amp;nbsp; addr = cntxt.csr_unified_vif[nret_id].mon_cb.rvfi_csr_addr;&lt;/div&gt;&lt;div&gt;&amp;nbsp; &amp;nbsp; &amp;nbsp; &amp;nbsp; &amp;nbsp; &amp;nbsp; &amp;nbsp; &amp;nbsp; &amp;nbsp; &amp;nbsp; &amp;nbsp; &amp;nbsp; &amp;nbsp; csr_trn.addr = addr;&lt;/div&gt;&lt;div&gt;&amp;nbsp; &amp;nbsp; &amp;nbsp; &amp;nbsp; &amp;nbsp; &amp;nbsp; &amp;nbsp; &amp;nbsp; &amp;nbsp; &amp;nbsp; &amp;nbsp; &amp;nbsp; &amp;nbsp; if (cntxt.csr_unified_vif[nret_id].mon_cb.rvfi_csr_wmask != 0) begin&lt;/div&gt;&lt;div&gt;&amp;nbsp; &amp;nbsp; &amp;nbsp; &amp;nbsp; &amp;nbsp; &amp;nbsp; &amp;nbsp; &amp;nbsp; &amp;nbsp; &amp;nbsp; &amp;nbsp; &amp;nbsp; &amp;nbsp; &amp;nbsp; &amp;nbsp; csr_trn.wmask = cntxt.csr_unified_vif[nret_id].mon_cb.rvfi_csr_wmask;&lt;/div&gt;&lt;div&gt;&amp;nbsp; &amp;nbsp; &amp;nbsp; &amp;nbsp; &amp;nbsp; &amp;nbsp; &amp;nbsp; &amp;nbsp; &amp;nbsp; &amp;nbsp; &amp;nbsp; &amp;nbsp; &amp;nbsp; &amp;nbsp; &amp;nbsp; csr_trn.wdata = cntxt.csr_unified_vif[nret_id].mon_cb.rvfi_csr_wdata;&lt;/div&gt;&lt;div&gt;&amp;nbsp; &amp;nbsp; &amp;nbsp; &amp;nbsp; &amp;nbsp; &amp;nbsp; &amp;nbsp; &amp;nbsp; &amp;nbsp; &amp;nbsp; &amp;nbsp; &amp;nbsp; &amp;nbsp; &amp;nbsp; &amp;nbsp; csr_trn.rmask = cntxt.csr_unified_vif[nret_id].mon_cb.rvfi_csr_rmask;&lt;/div&gt;&lt;div&gt;&amp;nbsp; &amp;nbsp; &amp;nbsp; &amp;nbsp; &amp;nbsp; &amp;nbsp; &amp;nbsp; &amp;nbsp; &amp;nbsp; &amp;nbsp; &amp;nbsp; &amp;nbsp; &amp;nbsp; &amp;nbsp; &amp;nbsp; csr_trn.rdata = cntxt.csr_unified_vif[nret_id].mon_cb.rvfi_csr_rdata;&lt;/div&gt;&lt;div&gt;&amp;nbsp; &amp;nbsp; &amp;nbsp; &amp;nbsp; &amp;nbsp; &amp;nbsp; &amp;nbsp; &amp;nbsp; &amp;nbsp; &amp;nbsp; &amp;nbsp; &amp;nbsp; &amp;nbsp; &amp;nbsp; &amp;nbsp; mon_trn.addr_csrs[addr] = csr_trn;&lt;/div&gt;&lt;div&gt;&amp;nbsp; &amp;nbsp; &amp;nbsp; &amp;nbsp; &amp;nbsp; &amp;nbsp; &amp;nbsp; &amp;nbsp; &amp;nbsp; &amp;nbsp; &amp;nbsp; &amp;nbsp; &amp;nbsp; end&lt;/div&gt;&lt;div&gt;&amp;nbsp; &amp;nbsp;&amp;nbsp;&lt;/div&gt;&lt;div&gt;&amp;nbsp; &amp;nbsp; &amp;nbsp; &amp;nbsp; &amp;nbsp; &amp;nbsp; &amp;nbsp; &amp;nbsp; &amp;nbsp; &amp;nbsp; &amp;nbsp; &amp;nbsp; &amp;nbsp; foreach(supported_csrs_addrs[i]) begin&lt;/div&gt;&lt;div&gt;&amp;nbsp; &amp;nbsp; &amp;nbsp; &amp;nbsp; &amp;nbsp; &amp;nbsp; &amp;nbsp; &amp;nbsp; &amp;nbsp; &amp;nbsp; &amp;nbsp; &amp;nbsp; &amp;nbsp; &amp;nbsp; &amp;nbsp; addr = supported_csrs_addrs[i];&lt;/div&gt;&lt;div&gt;&amp;nbsp; &amp;nbsp; &amp;nbsp; &amp;nbsp; &amp;nbsp; &amp;nbsp; &amp;nbsp; &amp;nbsp; &amp;nbsp; &amp;nbsp; &amp;nbsp; &amp;nbsp; &amp;nbsp; &amp;nbsp; &amp;nbsp; csr_trn = uvma_rvfi_csr_seq_item_c#(XLEN)::type_id::create({addr, &quot;_trn&quot;});&lt;/div&gt;&lt;div&gt;&amp;nbsp; &amp;nbsp; &amp;nbsp; &amp;nbsp; &amp;nbsp; &amp;nbsp; &amp;nbsp; &amp;nbsp; &amp;nbsp; &amp;nbsp; &amp;nbsp; &amp;nbsp; &amp;nbsp; &amp;nbsp; &amp;nbsp; csr_trn.addr = addr;&lt;/div&gt;&lt;div&gt;&amp;nbsp; &amp;nbsp; &amp;nbsp; &amp;nbsp; &amp;nbsp; &amp;nbsp; &amp;nbsp; &amp;nbsp; &amp;nbsp; &amp;nbsp; &amp;nbsp; &amp;nbsp; &amp;nbsp; &amp;nbsp; &amp;nbsp; csr_trn.wmask = cntxt.csr_unified_vif[nret_id].mon_cb.rvfi_named_csr_wmask[addr];&lt;/div&gt;&lt;div&gt;&amp;nbsp; &amp;nbsp; &amp;nbsp; &amp;nbsp; &amp;nbsp; &amp;nbsp; &amp;nbsp; &amp;nbsp; &amp;nbsp; &amp;nbsp; &amp;nbsp; &amp;nbsp; &amp;nbsp; &amp;nbsp; &amp;nbsp; csr_trn.wdata = cntxt.csr_unified_vif[nret_id].mon_cb.rvfi_named_csr_wdata[addr];&lt;/div&gt;&lt;div&gt;&amp;nbsp; &amp;nbsp; &amp;nbsp; &amp;nbsp; &amp;nbsp; &amp;nbsp; &amp;nbsp; &amp;nbsp; &amp;nbsp; &amp;nbsp; &amp;nbsp; &amp;nbsp; &amp;nbsp; &amp;nbsp; &amp;nbsp; csr_trn.rmask = cntxt.csr_unified_vif[nret_id].mon_cb.rvfi_named_csr_rmask[addr];&lt;/div&gt;&lt;div&gt;&amp;nbsp; &amp;nbsp; &amp;nbsp; &amp;nbsp; &amp;nbsp; &amp;nbsp; &amp;nbsp; &amp;nbsp; &amp;nbsp; &amp;nbsp; &amp;nbsp; &amp;nbsp; &amp;nbsp; &amp;nbsp; &amp;nbsp; csr_trn.rdata = cntxt.csr_unified_vif[nret_id].mon_cb.rvfi_named_csr_rdata[addr];&lt;/div&gt;&lt;div&gt;&amp;nbsp; &amp;nbsp; &amp;nbsp; &amp;nbsp; &amp;nbsp; &amp;nbsp; &amp;nbsp; &amp;nbsp; &amp;nbsp; &amp;nbsp; &amp;nbsp; &amp;nbsp; &amp;nbsp; &amp;nbsp; &amp;nbsp; mon_trn.addr_csrs[addr] = csr_trn;&lt;/div&gt;&lt;div&gt;&amp;nbsp; &amp;nbsp; &amp;nbsp; &amp;nbsp; &amp;nbsp; &amp;nbsp; &amp;nbsp; &amp;nbsp; &amp;nbsp; &amp;nbsp; &amp;nbsp; &amp;nbsp; &amp;nbsp; end&lt;/div&gt;&lt;div&gt;&amp;nbsp; &amp;nbsp; &amp;nbsp; &amp;nbsp; &amp;nbsp; &amp;nbsp; &amp;nbsp; &amp;nbsp; &amp;nbsp; end&lt;/div&gt;&lt;/div&gt;" style="text;strokeColor=default;fillColor=default;align=left;verticalAlign=top;spacingLeft=4;spacingRight=4;overflow=hidden;rotatable=0;points=[[0,0.5],[1,0.5]];portConstraint=eastwest;whiteSpace=wrap;html=1;" vertex="1" parent="AIi3PwNUS5Vkqz0hZRpa-29">
          <mxGeometry y="470" width="690" height="580" as="geometry" />
        </mxCell>
        <mxCell id="AIi3PwNUS5Vkqz0hZRpa-40" value="&lt;div style=&quot;&quot;&gt;&lt;div&gt;&amp;nbsp; &amp;nbsp; &amp;nbsp; &amp;nbsp; &amp;nbsp; &amp;nbsp; &amp;nbsp; &amp;nbsp; &amp;nbsp; // Decode interrupts that need to be communicated to ISS (external or NMI bus faults)&lt;/div&gt;&lt;div&gt;&amp;nbsp; &amp;nbsp; &amp;nbsp; &amp;nbsp; &amp;nbsp; &amp;nbsp; &amp;nbsp; &amp;nbsp; &amp;nbsp; if (mon_trn.intr) begin&lt;/div&gt;&lt;div&gt;&lt;br&gt;&lt;/div&gt;&lt;div&gt;&lt;br&gt;&lt;/div&gt;&lt;div&gt;&amp;nbsp; &amp;nbsp; &amp;nbsp; &amp;nbsp; &amp;nbsp; &amp;nbsp; &amp;nbsp; &amp;nbsp; &amp;nbsp; end&lt;/div&gt;&lt;/div&gt;" style="text;strokeColor=default;fillColor=default;align=left;verticalAlign=top;spacingLeft=4;spacingRight=4;overflow=hidden;rotatable=0;points=[[0,0.5],[1,0.5]];portConstraint=eastwest;whiteSpace=wrap;html=1;" vertex="1" parent="AIi3PwNUS5Vkqz0hZRpa-29">
          <mxGeometry y="1050" width="690" height="90" as="geometry" />
        </mxCell>
        <mxCell id="AIi3PwNUS5Vkqz0hZRpa-43" value="&lt;div style=&quot;&quot;&gt;&lt;div&gt;&amp;nbsp; &amp;nbsp; &amp;nbsp; &amp;nbsp; &amp;nbsp; &amp;nbsp; &amp;nbsp; &amp;nbsp; &amp;nbsp; // Decode interrupts that need to be communicated to ISS (external or NMI bus faults)&lt;/div&gt;&lt;div&gt;&amp;nbsp; &amp;nbsp; &amp;nbsp; &amp;nbsp; &amp;nbsp; &amp;nbsp; &amp;nbsp; &amp;nbsp; &amp;nbsp; if (mon_trn.intr) begin&lt;/div&gt;&lt;div&gt;&lt;br&gt;&lt;/div&gt;&lt;div&gt;&lt;br&gt;&lt;/div&gt;&lt;div&gt;&amp;nbsp; &amp;nbsp; &amp;nbsp; &amp;nbsp; &amp;nbsp; &amp;nbsp; &amp;nbsp; &amp;nbsp; &amp;nbsp; end&lt;/div&gt;&lt;div&gt;&amp;nbsp; &amp;nbsp; &amp;nbsp; &amp;nbsp; &amp;nbsp; &amp;nbsp; &amp;nbsp; &amp;nbsp; &amp;nbsp; ...&lt;/div&gt;&lt;div&gt;&amp;nbsp; &amp;nbsp; &amp;nbsp; &amp;nbsp; &amp;nbsp; &amp;nbsp; &amp;nbsp; &amp;nbsp; &amp;nbsp;// Debug related&lt;/div&gt;&lt;div&gt;&amp;nbsp; &amp;nbsp; &amp;nbsp; &amp;nbsp; &amp;nbsp; &amp;nbsp; &amp;nbsp;end /* */&lt;/div&gt;&lt;/div&gt;" style="text;strokeColor=default;fillColor=default;align=left;verticalAlign=top;spacingLeft=4;spacingRight=4;overflow=hidden;rotatable=0;points=[[0,0.5],[1,0.5]];portConstraint=eastwest;whiteSpace=wrap;html=1;" vertex="1" parent="AIi3PwNUS5Vkqz0hZRpa-29">
          <mxGeometry y="1140" width="690" height="130" as="geometry" />
        </mxCell>
        <mxCell id="AIi3PwNUS5Vkqz0hZRpa-44" value="&lt;div style=&quot;&quot;&gt;&lt;div&gt;&lt;span style=&quot;font-size: 12px;&quot;&gt;&amp;nbsp; &amp;nbsp; &amp;nbsp; &amp;nbsp; &amp;nbsp; &amp;nbsp; &amp;nbsp; // Detect instruction bus fault&lt;/span&gt;&lt;/div&gt;&lt;div&gt;&lt;span style=&quot;font-size: 12px;&quot;&gt;&amp;nbsp; &amp;nbsp; &amp;nbsp; &amp;nbsp; &amp;nbsp; &amp;nbsp; &amp;nbsp; if (cfg.insn_bus_fault_enabled &amp;amp;&amp;amp;&lt;/span&gt;&lt;/div&gt;&lt;div&gt;&lt;span style=&quot;font-size: 12px;&quot;&gt;&amp;nbsp; &amp;nbsp; &amp;nbsp; &amp;nbsp; &amp;nbsp; &amp;nbsp; &amp;nbsp; &amp;nbsp; &amp;nbsp; mon_trn.is_trap() &amp;amp;&amp;amp;&lt;/span&gt;&lt;/div&gt;&lt;div&gt;&lt;span style=&quot;font-size: 12px;&quot;&gt;&amp;nbsp; &amp;nbsp; &amp;nbsp; &amp;nbsp; &amp;nbsp; &amp;nbsp; &amp;nbsp; &amp;nbsp; &amp;nbsp; mon_trn.get_trap_cause() == cfg.insn_bus_fault_cause) begin&lt;/span&gt;&lt;/div&gt;&lt;div&gt;&lt;span style=&quot;font-size: 12px;&quot;&gt;&amp;nbsp; &amp;nbsp; &amp;nbsp; &amp;nbsp; &amp;nbsp; &amp;nbsp; &amp;nbsp; &amp;nbsp; &amp;nbsp; mon_trn.insn_bus_fault = 1;&lt;/span&gt;&lt;/div&gt;&lt;div&gt;&lt;span style=&quot;font-size: 12px;&quot;&gt;&amp;nbsp; &amp;nbsp; &amp;nbsp; &amp;nbsp; &amp;nbsp; &amp;nbsp; &amp;nbsp; &amp;nbsp; &amp;nbsp; `uvm_info(&quot;RVFIMON&quot;, $sformatf(&quot;Detected bus fault&quot;), UVM_LOW)&lt;/span&gt;&lt;/div&gt;&lt;div&gt;&lt;span style=&quot;font-size: 12px;&quot;&gt;&amp;nbsp; &amp;nbsp; &amp;nbsp; &amp;nbsp; &amp;nbsp; &amp;nbsp; &amp;nbsp; end&lt;/span&gt;&lt;/div&gt;&lt;div&gt;&lt;span style=&quot;font-size: 12px;&quot;&gt;&lt;br&gt;&lt;/span&gt;&lt;/div&gt;&lt;div&gt;&lt;span style=&quot;font-size: 12px;&quot;&gt;&amp;nbsp; &amp;nbsp; &amp;nbsp; &amp;nbsp; &amp;nbsp; &amp;nbsp; &amp;nbsp; `uvm_info(log_tag, $sformatf(&quot;%s&quot;, mon_trn.convert2string()), UVM_HIGH);&lt;/span&gt;&lt;/div&gt;&lt;/div&gt;" style="text;strokeColor=default;fillColor=default;align=left;verticalAlign=top;spacingLeft=4;spacingRight=4;overflow=hidden;rotatable=0;points=[[0,0.5],[1,0.5]];portConstraint=eastwest;whiteSpace=wrap;html=1;" vertex="1" parent="AIi3PwNUS5Vkqz0hZRpa-29">
          <mxGeometry y="1270" width="690" height="150" as="geometry" />
        </mxCell>
        <mxCell id="AIi3PwNUS5Vkqz0hZRpa-38" value="&lt;div style=&quot;&quot;&gt;&amp;nbsp; &amp;nbsp; &amp;nbsp; &amp;nbsp; &amp;nbsp; &amp;nbsp; &amp;nbsp;&amp;nbsp;&lt;b style=&quot;background-color: rgb(185, 224, 165);&quot;&gt;ap.write(mon_trn);&lt;/b&gt;&lt;span style=&quot;color: light-dark(rgb(0, 0, 0), rgb(255, 255, 255)); background-color: transparent;&quot;&gt;&lt;/span&gt;&lt;/div&gt;&lt;div style=&quot;&quot;&gt;&lt;span style=&quot;color: light-dark(rgb(0, 0, 0), rgb(255, 255, 255)); background-color: transparent;&quot;&gt;&amp;nbsp; &amp;nbsp; &amp;nbsp; &amp;nbsp; &amp;nbsp;&lt;/span&gt;&lt;span style=&quot;color: light-dark(rgb(0, 0, 0), rgb(255, 255, 255)); background-color: transparent;&quot;&gt;&amp;nbsp;&lt;/span&gt;&lt;span style=&quot;color: light-dark(rgb(0, 0, 0), rgb(255, 255, 255)); background-color: transparent;&quot;&gt;end /* if&amp;nbsp;&lt;/span&gt;&lt;span style=&quot;background-color: transparent; color: light-dark(rgb(0, 0, 0), rgb(255, 255, 255));&quot;&gt;monitor_condition&lt;/span&gt;&lt;span style=&quot;background-color: transparent; color: light-dark(rgb(0, 0, 0), rgb(255, 255, 255));&quot;&gt;&amp;nbsp;*/&lt;/span&gt;&lt;/div&gt;&lt;div&gt;&lt;span style=&quot;background-color: transparent;&quot;&gt;&lt;div style=&quot;&quot;&gt;&lt;div style=&quot;&quot;&gt;&lt;div style=&quot;&quot;&gt;&lt;span style=&quot;font-size: 12px;&quot;&gt;&lt;div&gt;&amp;nbsp; &amp;nbsp; &amp;nbsp; end /* for */&lt;/div&gt;&lt;div&gt;&amp;nbsp; end /* while */&lt;/div&gt;&lt;/span&gt;&lt;/div&gt;&lt;/div&gt;&lt;/div&gt;&lt;/span&gt;&lt;/div&gt;" style="text;strokeColor=default;fillColor=default;align=left;verticalAlign=top;spacingLeft=4;spacingRight=4;overflow=hidden;rotatable=0;points=[[0,0.5],[1,0.5]];portConstraint=eastwest;whiteSpace=wrap;html=1;" vertex="1" parent="AIi3PwNUS5Vkqz0hZRpa-29">
          <mxGeometry y="1420" width="690" height="80" as="geometry" />
        </mxCell>
        <mxCell id="AIi3PwNUS5Vkqz0hZRpa-33" value="" style="line;strokeWidth=1;fillColor=none;align=left;verticalAlign=middle;spacingTop=-1;spacingLeft=3;spacingRight=3;rotatable=0;labelPosition=right;points=[];portConstraint=eastwest;strokeColor=inherit;" vertex="1" parent="AIi3PwNUS5Vkqz0hZRpa-29">
          <mxGeometry y="1500" width="690" height="8" as="geometry" />
        </mxCell>
        <mxCell id="AIi3PwNUS5Vkqz0hZRpa-45" value="AP Write" style="html=1;verticalAlign=bottom;endArrow=block;curved=0;rounded=0;entryX=0;entryY=0.5;entryDx=0;entryDy=0;exitX=1;exitY=0.5;exitDx=0;exitDy=0;strokeWidth=5;fillColor=#dae8fc;strokeColor=#6c8ebf;" edge="1" parent="1" source="AIi3PwNUS5Vkqz0hZRpa-38" target="AIi3PwNUS5Vkqz0hZRpa-53">
          <mxGeometry width="80" relative="1" as="geometry">
            <mxPoint x="3370" y="430" as="sourcePoint" />
            <mxPoint x="3640" y="560" as="targetPoint" />
            <Array as="points">
              <mxPoint x="3580" y="420" />
              <mxPoint x="3580" y="600" />
              <mxPoint x="2480" y="600" />
              <mxPoint x="2480" y="1025" />
            </Array>
          </mxGeometry>
        </mxCell>
        <mxCell id="AIi3PwNUS5Vkqz0hZRpa-49" value="AP Write" style="html=1;verticalAlign=bottom;endArrow=block;curved=0;rounded=0;entryX=0;entryY=0.5;entryDx=0;entryDy=0;exitX=1;exitY=0.795;exitDx=0;exitDy=0;exitPerimeter=0;strokeWidth=5;fillColor=#d5e8d4;strokeColor=#82b366;" edge="1" parent="1" source="AIi3PwNUS5Vkqz0hZRpa-53" target="AIi3PwNUS5Vkqz0hZRpa-35">
          <mxGeometry x="-0.2129" y="-31" width="80" relative="1" as="geometry">
            <mxPoint x="3660" y="560" as="sourcePoint" />
            <mxPoint x="4200" y="565" as="targetPoint" />
            <Array as="points">
              <mxPoint x="3570" y="1069" />
            </Array>
            <mxPoint as="offset" />
          </mxGeometry>
        </mxCell>
        <mxCell id="AIi3PwNUS5Vkqz0hZRpa-50" value="Connect" style="html=1;verticalAlign=bottom;endArrow=block;curved=0;rounded=0;entryX=0;entryY=0;entryDx=0;entryDy=0;exitX=1;exitY=0.5;exitDx=0;exitDy=0;strokeWidth=5;" edge="1" parent="1" source="AIi3PwNUS5Vkqz0hZRpa-25" target="AIi3PwNUS5Vkqz0hZRpa-29">
          <mxGeometry width="80" relative="1" as="geometry">
            <mxPoint x="3480" y="-180" as="sourcePoint" />
            <mxPoint x="4020" y="-175" as="targetPoint" />
            <Array as="points">
              <mxPoint x="2320" y="-158" />
              <mxPoint x="2470" y="-1040" />
            </Array>
          </mxGeometry>
        </mxCell>
        <mxCell id="AIi3PwNUS5Vkqz0hZRpa-51" value="Connect" style="html=1;verticalAlign=bottom;endArrow=block;curved=0;rounded=0;entryX=0;entryY=0;entryDx=0;entryDy=0;exitX=1;exitY=0.75;exitDx=0;exitDy=0;strokeWidth=5;" edge="1" parent="1" source="AIi3PwNUS5Vkqz0hZRpa-23" target="AIi3PwNUS5Vkqz0hZRpa-18">
          <mxGeometry width="80" relative="1" as="geometry">
            <mxPoint x="2480" y="1209" as="sourcePoint" />
            <mxPoint x="2780" y="70" as="targetPoint" />
            <Array as="points">
              <mxPoint x="2320" y="-39" />
              <mxPoint x="2580" y="720" />
            </Array>
          </mxGeometry>
        </mxCell>
        <mxCell id="AIi3PwNUS5Vkqz0hZRpa-55" value="AP Write" style="html=1;verticalAlign=bottom;endArrow=block;curved=0;rounded=0;entryX=0;entryY=0.5;entryDx=0;entryDy=0;strokeWidth=5;exitX=1;exitY=0.5;exitDx=0;exitDy=0;fillColor=#dae8fc;strokeColor=#6c8ebf;" edge="1" parent="1" source="AIi3PwNUS5Vkqz0hZRpa-38" target="AIi3PwNUS5Vkqz0hZRpa-36">
          <mxGeometry x="-0.2902" y="10" width="80" relative="1" as="geometry">
            <mxPoint x="3380" y="430" as="sourcePoint" />
            <mxPoint x="4990" y="1090" as="targetPoint" />
            <Array as="points">
              <mxPoint x="4140" y="420" />
            </Array>
            <mxPoint as="offset" />
          </mxGeometry>
        </mxCell>
        <mxCell id="AIi3PwNUS5Vkqz0hZRpa-57" value="spkie model" style="swimlane;fontStyle=1;align=center;verticalAlign=top;childLayout=stackLayout;horizontal=1;startSize=26;horizontalStack=0;resizeParent=1;resizeParentMax=0;resizeLast=0;collapsible=1;marginBottom=0;whiteSpace=wrap;html=1;" vertex="1" parent="1">
          <mxGeometry x="3910" y="1200" width="780" height="1210" as="geometry" />
        </mxCell>
        <mxCell id="AIi3PwNUS5Vkqz0hZRpa-58" value="&lt;span style=&quot;font-size: 12px;&quot;&gt;&lt;b&gt;/home/ICer/proj/cva6/verif/core-v-verif/lib/uvm_components/uvmc_rvfi_reference_model/rvfi_spike.sv&lt;/b&gt;&lt;/span&gt;" style="text;strokeColor=default;fillColor=default;align=left;verticalAlign=top;spacingLeft=4;spacingRight=4;overflow=hidden;rotatable=0;points=[[0,0.5],[1,0.5]];portConstraint=eastwest;whiteSpace=wrap;html=1;" vertex="1" parent="AIi3PwNUS5Vkqz0hZRpa-57">
          <mxGeometry y="26" width="780" height="34" as="geometry" />
        </mxCell>
        <mxCell id="AIi3PwNUS5Vkqz0hZRpa-59" value="&lt;div&gt;&lt;span style=&quot;font-size: 12px;&quot;&gt;function automatic void rvfi_initialize_spike(string core_name, st_core_cntrl_cfg core_cfg);&lt;/span&gt;&lt;/div&gt;&lt;div&gt;&lt;div style=&quot;&quot;&gt;&lt;span style=&quot;font-size: 12px;&quot;&gt;&amp;nbsp; &amp;nbsp; base = $sformatf(&quot;/top/core/%0d/&quot;, core_cfg.mhartid);&lt;/span&gt;&lt;/div&gt;&lt;div style=&quot;&quot;&gt;&lt;span style=&quot;font-size: 12px;&quot;&gt;&lt;br&gt;&lt;/span&gt;&lt;/div&gt;&lt;div style=&quot;&quot;&gt;&lt;span style=&quot;font-size: 12px;&quot;&gt;&amp;nbsp; &amp;nbsp; &lt;span style=&quot;background-color: rgb(185, 224, 165);&quot;&gt;if ($value$plusargs(&quot;elf_file=%s&quot;, binary))&lt;/span&gt;&lt;/span&gt;&lt;/div&gt;&lt;div style=&quot;&quot;&gt;&lt;span style=&quot;font-size: 12px;&quot;&gt;&amp;nbsp; &amp;nbsp; &amp;nbsp; &amp;nbsp; `uvm_info(&quot;spike_tandem&quot;, $sformatf(&quot;Setting up Spike with binary %s...&quot;, binary), UVM_LOW);&lt;/span&gt;&lt;/div&gt;&lt;/div&gt;&lt;div&gt;&lt;span style=&quot;font-size: 12px;&quot;&gt;&amp;nbsp; &amp;nbsp; end&lt;br&gt;&lt;/span&gt;&lt;/div&gt;&lt;div&gt;&lt;span style=&quot;font-size: 12px;&quot;&gt;&lt;br&gt;&lt;/span&gt;&lt;/div&gt;&lt;div&gt;&lt;span style=&quot;font-size: 12px;&quot;&gt;&amp;nbsp; &amp;nbsp;&amp;nbsp;&lt;/span&gt;&lt;span style=&quot;font-size: 12px;&quot;&gt;void&#39;(&lt;span style=&quot;background-color: rgb(255, 242, 204);&quot;&gt;&lt;b&gt;spike_set_default_params&lt;/b&gt;&lt;/span&gt;(core_name));&lt;/span&gt;&lt;br&gt;&lt;br&gt;&lt;div style=&quot;background-color: transparent;&quot;&gt;&lt;span style=&quot;font-size: 12px;&quot;&gt;&amp;nbsp; &amp;nbsp; rtl_isa = get_isa_str(core_cfg);&lt;/span&gt;&lt;/div&gt;&lt;div style=&quot;background-color: transparent;&quot;&gt;&lt;span style=&quot;font-size: 12px;&quot;&gt;&amp;nbsp; &amp;nbsp; rtl_priv = get_priv_str(core_cfg);&lt;/span&gt;&lt;/div&gt;&lt;/div&gt;" style="text;strokeColor=default;fillColor=default;align=left;verticalAlign=top;spacingLeft=4;spacingRight=4;overflow=hidden;rotatable=0;points=[[0,0.5],[1,0.5]];portConstraint=eastwest;whiteSpace=wrap;html=1;" vertex="1" parent="AIi3PwNUS5Vkqz0hZRpa-57">
          <mxGeometry y="60" width="780" height="170" as="geometry" />
        </mxCell>
        <mxCell id="AIi3PwNUS5Vkqz0hZRpa-60" value="&lt;div&gt;&lt;span style=&quot;font-size: 12px;&quot;&gt;&amp;nbsp; &amp;nbsp; &lt;span style=&quot;background-color: rgb(185, 224, 165);&quot;&gt;if ($value$plusargs(&quot;config_file=%s&quot;, config_file)) begin&lt;/span&gt;&lt;/span&gt;&lt;/div&gt;&lt;div&gt;&lt;span style=&quot;font-size: 12px;&quot;&gt;&amp;nbsp; &amp;nbsp; &amp;nbsp; &amp;nbsp; void&#39;(&lt;span style=&quot;background-color: rgb(255, 242, 204);&quot;&gt;&lt;b&gt;spike_set_params_from_file&lt;/b&gt;&lt;/span&gt;(config_file));&lt;/span&gt;&lt;/div&gt;&lt;div&gt;&lt;span style=&quot;font-size: 12px;&quot;&gt;&amp;nbsp; &amp;nbsp; &amp;nbsp; &amp;nbsp; // If core address is not set or is zero (FORNOW no way to discriminate&lt;/span&gt;&lt;/div&gt;&lt;div&gt;&lt;span style=&quot;font-size: 12px;&quot;&gt;&amp;nbsp; &amp;nbsp; &amp;nbsp; &amp;nbsp; // between these conditions), take the &quot;/top/cores/boot_addr&quot; value&lt;/span&gt;&lt;/div&gt;&lt;div&gt;&lt;span style=&quot;font-size: 12px;&quot;&gt;&amp;nbsp; &amp;nbsp; &amp;nbsp; &amp;nbsp; // (possibly equal to zero).&lt;/span&gt;&lt;/div&gt;&lt;div&gt;&lt;span style=&quot;font-size: 12px;&quot;&gt;&amp;nbsp; &amp;nbsp; &amp;nbsp; &amp;nbsp; boot_addr = &lt;span style=&quot;background-color: rgb(255, 242, 204);&quot;&gt;&lt;b&gt;spike_get_param_uint64_t&lt;/b&gt;&lt;/span&gt;(base, &quot;boot_addr&quot;);&lt;/span&gt;&lt;/div&gt;&lt;div&gt;&lt;span style=&quot;font-size: 12px;&quot;&gt;&amp;nbsp; &amp;nbsp; &amp;nbsp; &amp;nbsp; if (boot_addr == 0)&lt;/span&gt;&lt;/div&gt;&lt;div&gt;&lt;span style=&quot;font-size: 12px;&quot;&gt;&amp;nbsp; &amp;nbsp; &amp;nbsp; &amp;nbsp; &amp;nbsp; &amp;nbsp; boot_addr = &lt;b style=&quot;background-color: rgb(255, 242, 204);&quot;&gt;spike_get_param_uint64_t&lt;/b&gt;(&quot;/top/cores/&quot;, &quot;boot_addr&quot;);&lt;/span&gt;&lt;br&gt;&lt;span style=&quot;font-size: 12px;&quot;&gt;&amp;nbsp; &amp;nbsp; end else begin&lt;/span&gt;&lt;br&gt;&lt;div style=&quot;&quot;&gt;&lt;span style=&quot;font-size: 12px;&quot;&gt;&amp;nbsp; &amp;nbsp; &amp;nbsp; &amp;nbsp; if (core_cfg.ext_cv32a60x_supported) begin&lt;/span&gt;&lt;/div&gt;&lt;div style=&quot;&quot;&gt;&lt;span style=&quot;font-size: 12px;&quot;&gt;&amp;nbsp; &amp;nbsp; &amp;nbsp; &amp;nbsp; &amp;nbsp; &amp;nbsp; void&#39;(&lt;b style=&quot;background-color: rgb(255, 242, 204);&quot;&gt;spike_set_param_str&lt;/b&gt;(&quot;/top/core/0/&quot;, &quot;extensions&quot;, &quot;cv32a60x&quot;));&lt;/span&gt;&lt;/div&gt;&lt;div style=&quot;&quot;&gt;&lt;span style=&quot;font-size: 12px;&quot;&gt;&amp;nbsp; &amp;nbsp; &amp;nbsp; &amp;nbsp; end&lt;/span&gt;&lt;/div&gt;&lt;div style=&quot;&quot;&gt;&lt;span style=&quot;font-size: 12px;&quot;&gt;&lt;br&gt;&lt;/span&gt;&lt;/div&gt;&lt;div style=&quot;&quot;&gt;&lt;span style=&quot;font-size: 12px;&quot;&gt;&amp;nbsp; &amp;nbsp; &amp;nbsp; &amp;nbsp; void&#39;(&lt;span style=&quot;background-color: rgb(255, 242, 204);&quot;&gt;&lt;b&gt;spike_set_param_uint64_t&lt;/b&gt;&lt;/span&gt;(&quot;/top/&quot;, &quot;num_procs&quot;, 64&#39;h1));&lt;/span&gt;&lt;/div&gt;&lt;div style=&quot;&quot;&gt;&lt;span style=&quot;font-size: 12px;&quot;&gt;&lt;br&gt;&lt;/span&gt;&lt;/div&gt;&lt;div style=&quot;&quot;&gt;&lt;span style=&quot;font-size: 12px;&quot;&gt;&amp;nbsp; &amp;nbsp; &amp;nbsp; &amp;nbsp; void&#39;(&lt;span style=&quot;background-color: rgb(255, 242, 204);&quot;&gt;&lt;b&gt;spike_set_param_bool&lt;/b&gt;&lt;/span&gt;(&quot;/top/&quot;, &quot;misaligned&quot;, core_cfg.unaligned_access_supported));&lt;/span&gt;&lt;/div&gt;&lt;div style=&quot;&quot;&gt;&lt;span style=&quot;font-size: 12px;&quot;&gt;&lt;br&gt;&lt;/span&gt;&lt;/div&gt;&lt;div style=&quot;&quot;&gt;&lt;span style=&quot;font-size: 12px;&quot;&gt;&amp;nbsp; &amp;nbsp; &amp;nbsp; &amp;nbsp; void&#39;(&lt;span style=&quot;background-color: rgb(255, 242, 204);&quot;&gt;&lt;b&gt;spike_set_param_uint64_t&lt;/b&gt;&lt;/span&gt;(base, &quot;pmpregions_max&quot;, core_cfg.pmp_regions));&lt;/span&gt;&lt;/div&gt;&lt;div style=&quot;&quot;&gt;&lt;span style=&quot;font-size: 12px;&quot;&gt;&amp;nbsp; &amp;nbsp; &amp;nbsp; &amp;nbsp; void&#39;(&lt;span style=&quot;background-color: rgb(255, 242, 204);&quot;&gt;&lt;b&gt;spike_set_param_uint64_t&lt;/b&gt;&lt;/span&gt;(base, &quot;pmpregions_writable&quot;, core_cfg.pmp_regions));&lt;/span&gt;&lt;/div&gt;&lt;div style=&quot;&quot;&gt;&lt;span style=&quot;font-size: 12px;&quot;&gt;&amp;nbsp; &amp;nbsp; &amp;nbsp; &amp;nbsp; void&#39;(&lt;span style=&quot;background-color: rgb(255, 242, 204);&quot;&gt;&lt;b&gt;spike_set_param_bool&lt;/b&gt;&lt;/span&gt;(base, &quot;misaligned&quot;, core_cfg.unaligned_access_supported));&lt;/span&gt;&lt;/div&gt;&lt;div style=&quot;&quot;&gt;&lt;span style=&quot;font-size: 12px;&quot;&gt;&lt;br&gt;&lt;/span&gt;&lt;/div&gt;&lt;div style=&quot;&quot;&gt;&lt;span style=&quot;font-size: 12px;&quot;&gt;&amp;nbsp; &amp;nbsp; &amp;nbsp; &amp;nbsp; void&#39;(&lt;span style=&quot;background-color: rgb(255, 242, 204);&quot;&gt;&lt;b&gt;spike_set_param_uint64_t&lt;/b&gt;&lt;/span&gt;(&quot;/top/&quot;, &quot;num_procs&quot;, 64&#39;h1));&lt;/span&gt;&lt;/div&gt;&lt;div style=&quot;&quot;&gt;&lt;span style=&quot;font-size: 12px;&quot;&gt;&lt;br&gt;&lt;/span&gt;&lt;/div&gt;&lt;div style=&quot;&quot;&gt;&lt;span style=&quot;font-size: 12px;&quot;&gt;&amp;nbsp; &amp;nbsp; &amp;nbsp; &amp;nbsp; void&#39;(&lt;span style=&quot;background-color: rgb(255, 242, 204);&quot;&gt;&lt;b&gt;spike_set_param_uint64_t&lt;/b&gt;&lt;/span&gt;(base, &quot;mhartid_override_mask&quot;, 64&#39;hFFFFFFFF));&lt;/span&gt;&lt;/div&gt;&lt;div style=&quot;&quot;&gt;&lt;span style=&quot;font-size: 12px;&quot;&gt;&amp;nbsp; &amp;nbsp; &amp;nbsp; &amp;nbsp; void&#39;(&lt;span style=&quot;background-color: rgb(255, 242, 204);&quot;&gt;&lt;b&gt;spike_set_param_uint64_t&lt;/b&gt;&lt;/span&gt;(base, &quot;mhartid_override_value&quot;, core_cfg.mhartid));&lt;/span&gt;&lt;/div&gt;&lt;div style=&quot;&quot;&gt;&lt;span style=&quot;font-size: 12px;&quot;&gt;&lt;br&gt;&lt;/span&gt;&lt;/div&gt;&lt;div style=&quot;&quot;&gt;&lt;span style=&quot;font-size: 12px;&quot;&gt;&amp;nbsp; &amp;nbsp; &amp;nbsp; &amp;nbsp; void&#39;(&lt;b style=&quot;background-color: rgb(255, 242, 204);&quot;&gt;spike_set_param_uint64_t&lt;/b&gt;(base, &quot;marchid_override_mask&quot;, 64&#39;hFFFFFFFF));&lt;/span&gt;&lt;/div&gt;&lt;div style=&quot;&quot;&gt;&lt;span style=&quot;font-size: 12px;&quot;&gt;&amp;nbsp; &amp;nbsp; &amp;nbsp; &amp;nbsp; void&#39;(&lt;span style=&quot;background-color: rgb(255, 242, 204);&quot;&gt;&lt;b&gt;spike_set_param_uint64_t&lt;/b&gt;&lt;/span&gt;(base, &quot;marchid_override_value&quot;, core_cfg.marchid));&lt;/span&gt;&lt;/div&gt;&lt;div style=&quot;&quot;&gt;&lt;span style=&quot;font-size: 12px;&quot;&gt;&lt;br&gt;&lt;/span&gt;&lt;/div&gt;&lt;div style=&quot;&quot;&gt;&lt;span style=&quot;font-size: 12px;&quot;&gt;&amp;nbsp; &amp;nbsp; &amp;nbsp; &amp;nbsp; void&#39;(&lt;span style=&quot;background-color: rgb(255, 242, 204);&quot;&gt;&lt;b&gt;spike_set_param_uint64_t&lt;/b&gt;&lt;/span&gt;(base, &quot;mvendorid_override_mask&quot;, 64&#39;hFFFFFFFF));&lt;/span&gt;&lt;/div&gt;&lt;div style=&quot;&quot;&gt;&lt;span style=&quot;font-size: 12px;&quot;&gt;&amp;nbsp; &amp;nbsp; &amp;nbsp; &amp;nbsp; void&#39;(&lt;b style=&quot;background-color: rgb(255, 242, 204);&quot;&gt;spike_set_param_uint64_t&lt;/b&gt;(base, &quot;mvendorid_override_value&quot;, core_cfg.mvendorid));&lt;/span&gt;&lt;/div&gt;&lt;div style=&quot;&quot;&gt;&lt;span style=&quot;font-size: 12px;&quot;&gt;&lt;br&gt;&lt;/span&gt;&lt;/div&gt;&lt;div style=&quot;&quot;&gt;&lt;span style=&quot;font-size: 12px;&quot;&gt;&amp;nbsp; &amp;nbsp; &amp;nbsp; &amp;nbsp; void&#39;(&lt;span style=&quot;background-color: rgb(255, 242, 204);&quot;&gt;&lt;b&gt;spike_set_param_bool&lt;/b&gt;&lt;/span&gt;(base, &quot;csr_counters_injection&quot;, 1&#39;h1));&lt;/span&gt;&lt;/div&gt;&lt;div style=&quot;&quot;&gt;&lt;span style=&quot;font-size: 12px;&quot;&gt;&lt;br&gt;&lt;/span&gt;&lt;/div&gt;&lt;div style=&quot;&quot;&gt;&lt;span style=&quot;font-size: 12px;&quot;&gt;&amp;nbsp; &amp;nbsp; &amp;nbsp; &amp;nbsp; if (core_cfg.dram_valid) begin&lt;/span&gt;&lt;/div&gt;&lt;div style=&quot;&quot;&gt;&lt;span style=&quot;font-size: 12px;&quot;&gt;&amp;nbsp; &amp;nbsp; &amp;nbsp; &amp;nbsp; &amp;nbsp; &amp;nbsp; void&#39;(&lt;span style=&quot;background-color: rgb(255, 242, 204);&quot;&gt;&lt;b&gt;spike_set_param_bool&lt;/b&gt;&lt;/span&gt;(&quot;/top/&quot;, &quot;dram_enable&quot;, core_cfg.dram_valid));&lt;/span&gt;&lt;/div&gt;&lt;div style=&quot;&quot;&gt;&lt;span style=&quot;font-size: 12px;&quot;&gt;&amp;nbsp; &amp;nbsp; &amp;nbsp; &amp;nbsp; &amp;nbsp; &amp;nbsp; void&#39;(&lt;span style=&quot;background-color: rgb(255, 242, 204);&quot;&gt;&lt;b style=&quot;&quot;&gt;spike_set_param_uint64_t&lt;/b&gt;&lt;/span&gt;(&quot;/top/&quot;, &quot;dram_base&quot;, core_cfg.dram_base));&lt;/span&gt;&lt;/div&gt;&lt;div style=&quot;&quot;&gt;&lt;span style=&quot;font-size: 12px;&quot;&gt;&amp;nbsp; &amp;nbsp; &amp;nbsp; &amp;nbsp; &amp;nbsp; &amp;nbsp; void&#39;(&lt;span style=&quot;background-color: rgb(255, 242, 204);&quot;&gt;&lt;b&gt;spike_set_param_uint64_t&lt;/b&gt;&lt;/span&gt;(&quot;/top/&quot;, &quot;dram_size&quot;, core_cfg.dram_size));&lt;/span&gt;&lt;/div&gt;&lt;div style=&quot;&quot;&gt;&lt;span style=&quot;font-size: 12px;&quot;&gt;&amp;nbsp; &amp;nbsp; &amp;nbsp; &amp;nbsp; end&lt;/span&gt;&lt;/div&gt;&lt;div style=&quot;&quot;&gt;&lt;span style=&quot;font-size: 12px;&quot;&gt;&amp;nbsp; &amp;nbsp; &amp;nbsp; &amp;nbsp; void&#39;(&lt;span style=&quot;background-color: rgb(255, 242, 204);&quot;&gt;&lt;b&gt;spike_set_param_bool&lt;/b&gt;&lt;/span&gt;(base, &quot;unified_traps&quot;, core_cfg.unified_traps));&lt;/span&gt;&lt;/div&gt;&lt;div style=&quot;&quot;&gt;&lt;span style=&quot;font-size: 12px;&quot;&gt;&lt;br&gt;&lt;/span&gt;&lt;/div&gt;&lt;div style=&quot;&quot;&gt;&lt;span style=&quot;font-size: 12px;&quot;&gt;&amp;nbsp; &amp;nbsp; &amp;nbsp; &amp;nbsp; // FORNOW FIXME TODO: Hardcoded bootrom base address&lt;/span&gt;&lt;/div&gt;&lt;div style=&quot;&quot;&gt;&lt;span style=&quot;font-size: 12px;&quot;&gt;&amp;nbsp; &amp;nbsp; &amp;nbsp; &amp;nbsp; &lt;span style=&quot;background-color: rgb(185, 224, 165);&quot;&gt;boot_addr = 64&#39;h10000;&lt;/span&gt;&lt;/span&gt;&lt;/div&gt;&lt;span style=&quot;font-size: 12px;&quot;&gt;&amp;nbsp; &amp;nbsp; end&lt;/span&gt;&lt;/div&gt;" style="text;strokeColor=default;fillColor=default;align=left;verticalAlign=top;spacingLeft=4;spacingRight=4;overflow=hidden;rotatable=0;points=[[0,0.5],[1,0.5]];portConstraint=eastwest;whiteSpace=wrap;html=1;" vertex="1" parent="AIi3PwNUS5Vkqz0hZRpa-57">
          <mxGeometry y="230" width="780" height="660" as="geometry" />
        </mxCell>
        <mxCell id="AIi3PwNUS5Vkqz0hZRpa-61" value="&lt;div&gt;&lt;span style=&quot;font-size: 12px;&quot;&gt;&amp;nbsp; &amp;nbsp; void&#39;(&lt;span style=&quot;background-color: rgb(255, 242, 204);&quot;&gt;&lt;b&gt;spike_set_param_str&lt;/b&gt;&lt;/span&gt;(&quot;/top/&quot;, &quot;isa&quot;, rtl_isa));&lt;/span&gt;&lt;/div&gt;&lt;div&gt;&lt;span style=&quot;font-size: 12px;&quot;&gt;&amp;nbsp; &amp;nbsp; void&#39;(&lt;span style=&quot;background-color: rgb(255, 242, 204);&quot;&gt;&lt;b&gt;spike_set_param_str&lt;/b&gt;&lt;/span&gt;(base, &quot;isa&quot;, rtl_isa));&lt;/span&gt;&lt;/div&gt;&lt;div&gt;&lt;span style=&quot;font-size: 12px;&quot;&gt;&amp;nbsp; &amp;nbsp; void&#39;(&lt;span style=&quot;background-color: rgb(255, 242, 204);&quot;&gt;&lt;b&gt;spike_set_param_str&lt;/b&gt;&lt;/span&gt;(&quot;/top/&quot;, &quot;priv&quot;, rtl_priv));&lt;/span&gt;&lt;/div&gt;&lt;div&gt;&lt;span style=&quot;font-size: 12px;&quot;&gt;&amp;nbsp; &amp;nbsp; void&#39;(&lt;span style=&quot;background-color: rgb(255, 242, 204);&quot;&gt;&lt;b&gt;spike_set_param_str&lt;/b&gt;&lt;/span&gt;(base, &quot;priv&quot;, rtl_priv));&lt;/span&gt;&lt;/div&gt;" style="text;strokeColor=default;fillColor=default;align=left;verticalAlign=top;spacingLeft=4;spacingRight=4;overflow=hidden;rotatable=0;points=[[0,0.5],[1,0.5]];portConstraint=eastwest;whiteSpace=wrap;html=1;" vertex="1" parent="AIi3PwNUS5Vkqz0hZRpa-57">
          <mxGeometry y="890" width="780" height="80" as="geometry" />
        </mxCell>
        <mxCell id="AIi3PwNUS5Vkqz0hZRpa-66" value="&lt;div&gt;&lt;span style=&quot;font-size: 12px;&quot;&gt;&amp;nbsp; &amp;nbsp; // Override default boot address with the address from UVM config.&lt;/span&gt;&lt;/div&gt;&lt;div&gt;&lt;span style=&quot;font-size: 12px;&quot;&gt;&amp;nbsp; &amp;nbsp; if (core_cfg.boot_addr_valid) begin&lt;/span&gt;&lt;/div&gt;&lt;div&gt;&lt;span style=&quot;font-size: 12px;&quot;&gt;&amp;nbsp; &amp;nbsp; if (boot_addr != core_cfg.boot_addr) begin&lt;/span&gt;&lt;/div&gt;&lt;div&gt;&lt;span style=&quot;font-size: 12px;&quot;&gt;&amp;nbsp; &amp;nbsp; &amp;nbsp; &amp;nbsp; &amp;nbsp; &amp;nbsp; `uvm_info(&quot;SPIKE tandem&quot;,&lt;/span&gt;&lt;/div&gt;&lt;div&gt;&lt;span style=&quot;font-size: 12px;&quot;&gt;&amp;nbsp; &amp;nbsp; &amp;nbsp; &amp;nbsp; &amp;nbsp; &amp;nbsp; &amp;nbsp; &amp;nbsp; &amp;nbsp; &amp;nbsp; &amp;nbsp;$sformatf(&quot;Overriding default boot address 0x%08h with UVM setting: 0x%08h&quot;,&lt;/span&gt;&lt;/div&gt;&lt;div&gt;&lt;span style=&quot;font-size: 12px;&quot;&gt;&amp;nbsp; &amp;nbsp; &amp;nbsp; &amp;nbsp; &amp;nbsp; &amp;nbsp; &amp;nbsp; &amp;nbsp; &amp;nbsp; &amp;nbsp; &amp;nbsp; &amp;nbsp; &amp;nbsp; &amp;nbsp; &amp;nbsp; &amp;nbsp;boot_addr, core_cfg.boot_addr), UVM_NONE);&lt;/span&gt;&lt;/div&gt;&lt;div&gt;&lt;span style=&quot;font-size: 12px;&quot;&gt;&amp;nbsp; &amp;nbsp; &amp;nbsp; &amp;nbsp; &amp;nbsp; &amp;nbsp; boot_addr = core_cfg.boot_addr;&lt;/span&gt;&lt;/div&gt;&lt;div&gt;&lt;span style=&quot;font-size: 12px;&quot;&gt;&amp;nbsp; &amp;nbsp; &amp;nbsp; &amp;nbsp; end&lt;/span&gt;&lt;/div&gt;&lt;div&gt;&lt;span style=&quot;font-size: 12px;&quot;&gt;&amp;nbsp; &amp;nbsp; end&lt;/span&gt;&lt;/div&gt;" style="text;strokeColor=default;fillColor=default;align=left;verticalAlign=top;spacingLeft=4;spacingRight=4;overflow=hidden;rotatable=0;points=[[0,0.5],[1,0.5]];portConstraint=eastwest;whiteSpace=wrap;html=1;" vertex="1" parent="AIi3PwNUS5Vkqz0hZRpa-57">
          <mxGeometry y="970" width="780" height="150" as="geometry" />
        </mxCell>
        <mxCell id="AIi3PwNUS5Vkqz0hZRpa-68" value="&lt;div&gt;&lt;span style=&quot;font-size: 12px;&quot;&gt;&amp;nbsp; &amp;nbsp; void&#39;(&lt;span style=&quot;background-color: rgb(255, 242, 204);&quot;&gt;&lt;b style=&quot;&quot;&gt;spike_set_param_uint64_t&lt;/b&gt;(base, &quot;boot_addr&quot;, boot_addr)&lt;/span&gt;);&lt;/span&gt;&lt;/div&gt;" style="text;strokeColor=default;fillColor=default;align=left;verticalAlign=top;spacingLeft=4;spacingRight=4;overflow=hidden;rotatable=0;points=[[0,0.5],[1,0.5]];portConstraint=eastwest;whiteSpace=wrap;html=1;" vertex="1" parent="AIi3PwNUS5Vkqz0hZRpa-57">
          <mxGeometry y="1120" width="780" height="30" as="geometry" />
        </mxCell>
        <mxCell id="AIi3PwNUS5Vkqz0hZRpa-67" value="&lt;span style=&quot;font-size: 12px;&quot;&gt;&amp;nbsp; &amp;nbsp; void&#39;(&lt;span style=&quot;background-color: rgb(255, 242, 204);&quot;&gt;&lt;b&gt;spike_create&lt;/b&gt;(binary)&lt;/span&gt;);&lt;/span&gt;" style="text;strokeColor=default;fillColor=default;align=left;verticalAlign=top;spacingLeft=4;spacingRight=4;overflow=hidden;rotatable=0;points=[[0,0.5],[1,0.5]];portConstraint=eastwest;whiteSpace=wrap;html=1;" vertex="1" parent="AIi3PwNUS5Vkqz0hZRpa-57">
          <mxGeometry y="1150" width="780" height="30" as="geometry" />
        </mxCell>
        <mxCell id="AIi3PwNUS5Vkqz0hZRpa-62" value="endfunction : rvfi_initialize_spike" style="text;strokeColor=default;fillColor=default;align=left;verticalAlign=top;spacingLeft=4;spacingRight=4;overflow=hidden;rotatable=0;points=[[0,0.5],[1,0.5]];portConstraint=eastwest;whiteSpace=wrap;html=1;" vertex="1" parent="AIi3PwNUS5Vkqz0hZRpa-57">
          <mxGeometry y="1180" width="780" height="30" as="geometry" />
        </mxCell>
        <mxCell id="AIi3PwNUS5Vkqz0hZRpa-70" value="Call model step" style="html=1;verticalAlign=bottom;endArrow=block;curved=0;rounded=0;entryX=0;entryY=0.5;entryDx=0;entryDy=0;strokeWidth=5;fillColor=#fff2cc;strokeColor=#d6b656;exitX=1;exitY=0.5;exitDx=0;exitDy=0;" edge="1" parent="1" source="AIi3PwNUS5Vkqz0hZRpa-20" target="AIi3PwNUS5Vkqz0hZRpa-59">
          <mxGeometry width="80" relative="1" as="geometry">
            <mxPoint x="5120" y="1000" as="sourcePoint" />
            <mxPoint x="4430" y="1185" as="targetPoint" />
            <Array as="points">
              <mxPoint x="3630" y="885" />
              <mxPoint x="3810" y="1345" />
            </Array>
          </mxGeometry>
        </mxCell>
        <mxCell id="AIi3PwNUS5Vkqz0hZRpa-71" value="spkie model" style="swimlane;fontStyle=1;align=center;verticalAlign=top;childLayout=stackLayout;horizontal=1;startSize=26;horizontalStack=0;resizeParent=1;resizeParentMax=0;resizeLast=0;collapsible=1;marginBottom=0;whiteSpace=wrap;html=1;" vertex="1" parent="1">
          <mxGeometry x="3910" y="2550" width="780" height="310" as="geometry" />
        </mxCell>
        <mxCell id="AIi3PwNUS5Vkqz0hZRpa-72" value="&lt;span style=&quot;font-size: 12px;&quot;&gt;&lt;b&gt;/home/ICer/proj/cva6/verif/core-v-verif/lib/uvm_components/uvmc_rvfi_reference_model/rvfi_spike.sv&lt;/b&gt;&lt;/span&gt;" style="text;strokeColor=default;fillColor=default;align=left;verticalAlign=top;spacingLeft=4;spacingRight=4;overflow=hidden;rotatable=0;points=[[0,0.5],[1,0.5]];portConstraint=eastwest;whiteSpace=wrap;html=1;" vertex="1" parent="AIi3PwNUS5Vkqz0hZRpa-71">
          <mxGeometry y="26" width="780" height="34" as="geometry" />
        </mxCell>
        <mxCell id="AIi3PwNUS5Vkqz0hZRpa-73" value="&lt;span style=&quot;font-size: 12px;&quot;&gt;function automatic void rvfi_spike_step(ref st_rvfi s_core, ref st_rvfi s_reference_model);&lt;/span&gt;&lt;br&gt;&lt;div style=&quot;&quot;&gt;&lt;span style=&quot;font-size: 12px;&quot;&gt;&amp;nbsp; &amp;nbsp; &amp;nbsp; &amp;nbsp; union_rvfi u_core;&lt;/span&gt;&lt;/div&gt;&lt;div style=&quot;&quot;&gt;&lt;span style=&quot;font-size: 12px;&quot;&gt;&amp;nbsp; &amp;nbsp; &amp;nbsp; &amp;nbsp; union_rvfi u_reference_model;&lt;/span&gt;&lt;/div&gt;&lt;div style=&quot;&quot;&gt;&lt;span style=&quot;font-size: 12px;&quot;&gt;&amp;nbsp; &amp;nbsp; &amp;nbsp; &amp;nbsp; bit [ST_NUM_WORDS-1:0][63:0] a_core;&lt;/span&gt;&lt;/div&gt;&lt;div style=&quot;&quot;&gt;&lt;span style=&quot;font-size: 12px;&quot;&gt;&amp;nbsp; &amp;nbsp; &amp;nbsp; &amp;nbsp; bit [ST_NUM_WORDS-1:0][63:0] a_reference_model;&lt;/span&gt;&lt;/div&gt;&lt;div style=&quot;&quot;&gt;&lt;span style=&quot;font-size: 12px;&quot;&gt;&lt;br&gt;&lt;/span&gt;&lt;/div&gt;&lt;div style=&quot;&quot;&gt;&lt;span style=&quot;font-size: 12px;&quot;&gt;&amp;nbsp; &amp;nbsp; &amp;nbsp; &amp;nbsp; u_core.rvfi = s_core;&lt;/span&gt;&lt;/div&gt;&lt;div style=&quot;&quot;&gt;&lt;span style=&quot;font-size: 12px;&quot;&gt;&amp;nbsp; &amp;nbsp; &amp;nbsp; &amp;nbsp; a_core = u_core.array;&lt;/span&gt;&lt;/div&gt;" style="text;strokeColor=default;fillColor=default;align=left;verticalAlign=top;spacingLeft=4;spacingRight=4;overflow=hidden;rotatable=0;points=[[0,0.5],[1,0.5]];portConstraint=eastwest;whiteSpace=wrap;html=1;" vertex="1" parent="AIi3PwNUS5Vkqz0hZRpa-71">
          <mxGeometry y="60" width="780" height="130" as="geometry" />
        </mxCell>
        <mxCell id="AIi3PwNUS5Vkqz0hZRpa-74" value="&lt;div&gt;&lt;span style=&quot;font-size: 12px;&quot;&gt;&amp;nbsp; &amp;nbsp; &amp;nbsp; &amp;nbsp; &lt;span&gt;&lt;b style=&quot;background-color: rgb(255, 242, 204);&quot;&gt;spike_step_svLogic&lt;/b&gt;(a_core, a_reference_model);&lt;/span&gt;&lt;/span&gt;&lt;/div&gt;&lt;div&gt;&lt;span style=&quot;font-size: 12px;&quot;&gt;&lt;br&gt;&lt;/span&gt;&lt;/div&gt;&lt;div&gt;&lt;span style=&quot;font-size: 12px;&quot;&gt;&amp;nbsp; &amp;nbsp; &amp;nbsp; &amp;nbsp; u_reference_model.array = a_reference_model;&lt;/span&gt;&lt;/div&gt;&lt;div&gt;&lt;span style=&quot;font-size: 12px;&quot;&gt;&lt;br&gt;&lt;/span&gt;&lt;/div&gt;&lt;div&gt;&lt;span style=&quot;font-size: 12px;&quot;&gt;&amp;nbsp; &amp;nbsp; &amp;nbsp; &amp;nbsp; s_reference_model = u_reference_model.rvfi;&lt;/span&gt;&lt;/div&gt;" style="text;strokeColor=default;fillColor=default;align=left;verticalAlign=top;spacingLeft=4;spacingRight=4;overflow=hidden;rotatable=0;points=[[0,0.5],[1,0.5]];portConstraint=eastwest;whiteSpace=wrap;html=1;" vertex="1" parent="AIi3PwNUS5Vkqz0hZRpa-71">
          <mxGeometry y="190" width="780" height="90" as="geometry" />
        </mxCell>
        <mxCell id="AIi3PwNUS5Vkqz0hZRpa-79" value="endfunction : rvfi_spike_step" style="text;strokeColor=default;fillColor=default;align=left;verticalAlign=top;spacingLeft=4;spacingRight=4;overflow=hidden;rotatable=0;points=[[0,0.5],[1,0.5]];portConstraint=eastwest;whiteSpace=wrap;html=1;" vertex="1" parent="AIi3PwNUS5Vkqz0hZRpa-71">
          <mxGeometry y="280" width="780" height="30" as="geometry" />
        </mxCell>
        <mxCell id="AIi3PwNUS5Vkqz0hZRpa-80" value="Call model step" style="html=1;verticalAlign=bottom;endArrow=block;curved=0;rounded=0;entryX=0;entryY=0;entryDx=0;entryDy=0;strokeWidth=5;fillColor=#d5e8d4;strokeColor=#82b366;exitX=1;exitY=0.5;exitDx=0;exitDy=0;startArrow=block;startFill=1;" edge="1" parent="1" source="AIi3PwNUS5Vkqz0hZRpa-46" target="AIi3PwNUS5Vkqz0hZRpa-71">
          <mxGeometry width="80" relative="1" as="geometry">
            <mxPoint x="3580" y="1310" as="sourcePoint" />
            <mxPoint x="4130" y="1770" as="targetPoint" />
            <Array as="points">
              <mxPoint x="3600" y="1215" />
              <mxPoint x="3730" y="2550" />
            </Array>
          </mxGeometry>
        </mxCell>
      </root>
    </mxGraphModel>
  </diagram>
</mxfile>
